<?xml version="1.0" standalone="no"?>
<!DOCTYPE svg PUBLIC "-//W3C//DTD SVG 20010904//EN"
 "http://www.w3.org/TR/2001/REC-SVG-20010904/DTD/svg10.dtd">
<svg version="1.0" xmlns="http://www.w3.org/2000/svg"
 width="1024.000000pt" height="576.000000pt" viewBox="0 0 1024.000000 576.000000"
 preserveAspectRatio="xMidYMid meet">

<g transform="translate(0.000000,576.000000) scale(0.100000,-0.100000)"
fill="#000000" stroke="none">
<path d="M1 3263 c0 -1374 4 -2489 9 -2478 9 22 13 16 24 -37 5 -23 3 -26 -17
-21 -20 4 -21 3 -5 -10 22 -17 23 -27 3 -27 -13 0 -15 -45 -15 -345 0 -326 1
-345 18 -345 10 0 22 4 28 9 5 5 19 12 31 16 18 5 22 3 17 -9 -6 -14 55 -16
609 -16 l616 0 3 27 c2 22 8 28 28 28 21 0 25 -5 25 -27 l-1 -28 1291 0 1291
0 13 44 c9 33 17 43 28 39 10 -4 11 -8 4 -13 -7 -4 -9 -19 -5 -38 l7 -32 497
0 497 0 11 22 c9 20 11 20 11 4 1 -12 6 -16 16 -13 8 4 17 2 20 -3 4 -6 968
-10 2596 -10 l2589 0 0 1423 0 1424 -40 18 c-51 23 -61 37 -18 24 18 -5 39 -9
46 -9 10 0 12 285 12 1440 l-1 1440 -1744 0 c-1157 0 -1745 -3 -1745 -10 0
-13 -57 -13 -62 1 -2 6 -30 9 -73 7 -64 -3 -68 -4 -52 -20 11 -10 13 -19 7
-23 -5 -3 -10 -14 -10 -23 0 -9 -11 -30 -23 -46 -20 -24 -28 -28 -51 -22 -43
11 -76 53 -76 97 l0 39 -3205 0 -3205 0 1 -2497z m3980 2460 c47 -28 37 -83
-16 -83 -40 0 -70 38 -61 76 8 29 35 31 77 7z m5879 -82 c5 -11 10 -31 10 -46
0 -14 7 -28 15 -31 17 -7 20 -46 5 -75 -12 -22 -61 -49 -90 -49 -14 0 -20 -7
-20 -21 0 -16 -5 -19 -27 -17 -43 5 -73 37 -73 77 0 46 44 111 75 111 14 0 33
13 49 35 31 40 41 43 56 16z m-8645 -31 c28 -27 37 -85 18 -122 -15 -31 -29
-34 -76 -15 -42 18 -74 97 -57 142 10 25 14 27 51 22 23 -3 51 -15 64 -27z
m6964 -125 c22 -24 41 -48 41 -53 0 -24 -30 -40 -86 -46 -73 -7 -84 2 -91 68
-5 37 -2 46 18 60 41 28 72 20 118 -29z m-7379 -97 c20 -22 26 -54 12 -74 -10
-17 -50 -27 -77 -20 -35 9 -51 90 -22 108 23 15 67 8 87 -14z m2213 -28 c4
-14 -2 -25 -18 -36 -29 -19 -59 -15 -63 7 -8 41 71 69 81 29z m4837 -95 c0 -8
14 -28 30 -43 41 -39 40 -81 -1 -134 l-32 -40 -23 29 c-22 28 -31 58 -39 140
-3 33 0 45 13 52 25 15 52 13 52 -4z m-3186 -25 c64 -24 81 -121 30 -167 -56
-52 -120 -38 -155 33 -47 98 23 173 125 134z m4255 -36 c46 -52 48 -60 24 -86
-9 -10 -11 -18 -5 -18 6 0 13 -9 17 -20 4 -11 20 -23 37 -28 32 -8 51 -32 26
-32 -8 0 -21 -11 -28 -25 -7 -14 -21 -25 -30 -25 -24 0 -42 24 -34 44 3 9 2
16 -4 16 -22 0 -42 -13 -42 -26 0 -14 -20 -20 -20 -6 -1 17 -61 74 -74 69 -11
-4 -16 5 -21 34 -4 21 -9 39 -11 39 -3 0 -17 -8 -32 -17 -26 -17 -25 -16 8 31
39 55 94 96 126 96 14 0 38 -18 63 -46z m68 -110 c-3 -3 -12 -4 -19 -1 -8 3
-5 6 6 6 11 1 17 -2 13 -5z m-482 -41 c20 -32 45 -44 45 -21 0 6 2 9 5 6 12
-11 -8 -38 -29 -38 -11 0 -39 -7 -61 -14 -36 -13 -40 -13 -44 2 -2 9 -7 22
-12 27 -11 15 39 77 59 73 9 -2 26 -18 37 -35z m-4077 -14 c4 -33 -21 -59 -57
-59 -36 0 -38 4 -33 41 8 52 84 67 90 18z m-2113 -53 c16 -12 18 -19 10 -43
-12 -34 -48 -42 -76 -17 -24 22 -24 29 3 54 26 24 38 25 63 6z m3579 -2 c3 -9
6 -22 6 -30 0 -32 -74 -90 -97 -76 -37 25 -37 97 1 112 36 15 83 11 90 -6z
m2005 -48 c14 -8 30 -12 36 -10 13 5 48 -68 37 -76 -4 -3 -12 -23 -17 -45 -9
-37 -13 -40 -52 -46 -25 -3 -48 -1 -54 5 -8 8 -13 7 -16 -1 -7 -20 -30 -15
-36 8 -5 17 -11 20 -29 15 -62 -18 -81 -19 -76 -6 2 8 18 21 36 29 21 11 30
21 26 32 -9 32 15 70 58 89 51 23 56 23 87 6z m-2623 -58 c12 -12 25 -37 28
-54 6 -26 2 -37 -26 -66 -38 -42 -85 -54 -117 -32 -11 8 -25 13 -29 10 -4 -3
-9 26 -10 63 -2 55 1 72 18 94 35 44 88 38 136 -15z m4351 30 c-3 -8 -6 -5 -6
6 -1 11 2 17 5 13 3 -3 4 -12 1 -19z m-1489 -35 c6 -9 12 -25 12 -35 0 -24 25
-23 42 1 7 10 31 26 53 35 l39 17 -22 -24 c-12 -13 -22 -34 -22 -48 0 -22 -4
-24 -53 -26 -28 -1 -63 -5 -77 -8 -22 -6 -28 -2 -43 29 -11 25 -23 36 -38 36
-19 0 -18 3 12 24 37 27 75 26 97 -1z m1729 -40 c-3 -10 -5 -4 -5 12 0 17 2
24 5 18 2 -7 2 -21 0 -30z m-8783 11 c10 -26 7 -34 -14 -34 -13 0 -20 7 -20
18 0 33 23 44 34 16z m8876 13 c0 -2 -10 -12 -22 -23 l-23 -19 19 23 c18 21
26 27 26 19z m-6228 -58 c22 -12 49 -63 44 -81 -2 -7 -7 -25 -10 -40 -4 -18
-21 -37 -48 -54 -36 -23 -43 -24 -65 -13 -66 35 -90 103 -56 159 28 48 79 58
135 29z m5905 -19 c28 -22 19 -26 -21 -10 -14 5 -26 14 -26 20 0 16 20 12 47
-10z m281 -23 c12 -18 22 -43 22 -56 0 -25 17 -62 34 -73 6 -4 11 -22 12 -40
1 -18 -1 -28 -3 -22 -2 7 -13 9 -24 7 -17 -5 -20 -11 -15 -34 4 -21 2 -29 -9
-29 -10 0 -13 8 -9 28 5 22 0 31 -25 50 -26 19 -34 20 -50 10 -16 -10 -23 -9
-39 5 -10 9 -25 17 -34 17 -12 0 -14 8 -9 37 5 28 15 43 38 58 17 11 38 35 47
52 18 38 32 36 64 -10z m-1141 -39 c7 -6 13 -20 14 -32 0 -16 2 -18 7 -5 8 17
46 19 63 2 15 -15 29 -84 23 -110 -7 -26 -20 -32 -61 -26 -31 5 -33 7 -33 49
0 31 -4 44 -14 44 -18 0 -74 32 -80 45 -2 6 1 21 5 34 8 19 14 22 37 16 15 -4
33 -11 39 -17z m-876 -98 c-8 -40 -9 -37 -6 30 4 87 7 99 12 50 2 -19 -1 -55
-6 -80z m-2158 85 c7 -16 -8 -29 -23 -20 -15 9 -12 35 4 35 8 0 16 -7 19 -15z
m4252 -35 c-3 -5 -10 -10 -16 -10 -5 0 -9 5 -9 10 0 6 7 10 16 10 8 0 12 -4 9
-10z m26 -17 c-8 -15 -10 -15 -11 -2 0 17 10 32 18 25 2 -3 -1 -13 -7 -23z
m-3796 -3 c3 -5 -1 -10 -9 -10 -9 0 -16 5 -16 10 0 6 4 10 9 10 6 0 13 -4 16
-10z m3367 -42 c3 -26 2 -45 -3 -43 -4 3 -13 -3 -19 -12 -11 -17 -11 -16 -5 2
3 10 9 39 12 62 7 53 9 52 15 -9z m-1777 -24 c24 -6 42 -56 36 -99 l-4 -30 -6
30 c-6 26 -11 30 -37 28 -42 -3 -70 26 -54 56 11 21 28 25 65 15z m1875 -4 c0
-5 -8 -10 -17 -10 -15 0 -16 2 -3 10 19 12 20 12 20 0z m-9370 -25 c44 -40 6
-95 -65 -95 l-45 0 0 50 c0 43 3 52 23 59 32 12 64 7 87 -14z m808 -6 c-6 -4
-2 -10 11 -14 11 -3 21 -10 21 -15 0 -4 20 -29 45 -56 100 -105 55 -162 -75
-95 -46 24 -55 33 -58 59 -2 22 4 37 23 56 14 14 21 26 15 26 -14 0 -13 38 3
54 8 10 14 11 19 3 4 -6 2 -14 -4 -18z m2991 7 c27 -28 22 -58 -12 -73 -27
-12 -47 -6 -47 13 0 8 -4 14 -10 14 -20 0 -10 47 13 58 31 15 31 15 56 -12z
m-2526 -50 c23 -18 36 -65 26 -93 -14 -39 -95 -39 -121 1 -11 16 -10 80 2 92
15 15 73 15 93 0z m8466 -12 c28 -35 26 -52 -4 -60 -31 -8 -56 1 -51 18 3 7 7
25 10 41 8 34 19 34 45 1z m-2125 -106 c5 -33 4 -49 -2 -43 -17 18 -32 77 -32
124 l1 46 13 -37 c7 -20 16 -61 20 -90z m-1243 89 c39 -21 44 -28 44 -58 0
-19 -3 -36 -6 -39 -7 -5 -12 -43 -10 -68 1 -8 12 -13 29 -12 44 3 52 1 52 -17
0 -18 -28 -53 -42 -53 -4 0 -8 6 -8 14 0 25 -35 57 -70 65 -24 5 -35 13 -34
24 1 9 -1 16 -5 15 -12 -2 -71 24 -71 32 0 4 11 24 25 44 14 20 25 43 25 50 0
32 15 32 71 3z m3294 -38 c-9 -17 -19 -28 -22 -25 -6 6 23 56 32 56 3 0 -2
-14 -10 -31z m-6993 -16 c40 -39 39 -102 -3 -166 -17 -26 -35 -47 -40 -47 -5
0 -9 -11 -9 -24 0 -80 -47 -102 -76 -36 -17 38 -20 40 -61 40 -37 0 -45 4 -53
26 -22 57 -13 79 58 152 37 38 74 72 82 75 37 13 75 6 102 -20z m4006 -23 c26
-25 28 -48 5 -57 -10 -3 -26 -14 -36 -25 -22 -22 -43 -23 -91 -3 -35 15 -41
35 -10 35 8 0 13 5 12 12 -2 6 5 14 16 16 11 2 16 0 12 -7 -14 -21 5 -11 32
19 32 35 32 35 60 10z m2549 -27 c-3 -10 -5 -2 -5 17 0 19 2 27 5 18 2 -10 2
-26 0 -35z m-3067 28 c0 -5 17 -12 39 -16 l38 -6 -8 -46 c-5 -25 -14 -52 -20
-59 -12 -15 -1 -37 34 -62 18 -14 23 -32 8 -32 -5 0 -24 12 -41 26 -24 21 -34
24 -43 15 -9 -9 -8 -14 3 -21 11 -7 12 -10 2 -10 -17 0 -13 -79 5 -97 14 -16
34 -17 31 -2 -2 6 3 14 10 16 20 7 14 -16 -8 -29 -11 -7 -20 -23 -20 -35 0
-24 -15 -39 -25 -24 -3 6 -12 8 -19 5 -15 -6 -26 43 -26 119 0 38 -5 53 -25
73 -23 23 -27 23 -57 11 -18 -7 -37 -23 -43 -34 -6 -14 -21 -23 -45 -26 -46
-5 -60 1 -60 27 0 11 -11 42 -25 68 l-24 46 24 16 c32 21 41 20 77 -5 16 -12
43 -22 61 -23 29 -1 32 2 38 37 7 44 11 48 52 64 39 14 67 16 67 4z m3507 -43
c-3 -7 -5 -2 -5 12 0 14 2 19 5 13 2 -7 2 -19 0 -25z m-63 8 c-3 -8 -13 -17
-22 -21 -13 -5 -13 -2 3 15 21 24 26 25 19 6z m-5317 -22 c43 -33 45 -74 4
-115 -32 -31 -46 -34 -84 -20 -31 12 -52 69 -43 116 6 29 11 34 39 38 18 2 36
5 41 5 5 1 24 -9 43 -24z m4890 4 c-3 -8 -6 -5 -6 6 -1 11 2 17 5 13 3 -3 4
-12 1 -19z m242 -47 c-6 -28 -15 -51 -20 -51 -12 0 -11 9 7 64 21 60 28 54 13
-13z m-244 -6 c14 -13 25 -33 25 -43 0 -23 -23 -45 -35 -34 -4 4 -5 -2 -1 -14
6 -18 3 -21 -21 -19 -41 3 -41 3 -48 26 -5 15 1 29 20 49 17 17 25 35 22 44
-9 24 11 19 38 -9z m379 10 c-4 -8 -11 -15 -16 -15 -6 0 -5 6 2 15 7 8 14 15
16 15 2 0 1 -7 -2 -15z m-2024 -115 c0 -14 4 -30 10 -36 6 -6 -4 -18 -30 -34
-43 -27 -45 -29 -55 -105 -4 -27 -10 -45 -12 -38 -2 6 1 38 7 70 11 57 10 58
-18 80 -27 22 -28 25 -18 68 10 42 13 45 43 45 29 0 33 3 33 28 1 26 2 25 20
-12 11 -22 20 -51 20 -66z m1990 70 c-6 -11 -13 -20 -16 -20 -2 0 0 9 6 20 6
11 13 20 16 20 2 0 0 -9 -6 -20z m137 -117 c-2 -21 -4 -4 -4 37 0 41 2 58 4
38 2 -21 2 -55 0 -75z m-347 42 c0 -5 -9 1 -20 15 -11 14 -20 30 -20 35 0 6 9
-1 20 -15 11 -14 20 -29 20 -35z m-2977 19 c34 -23 39 -24 53 -10 20 20 28 20
20 0 -3 -9 1 -25 9 -37 22 -32 19 -37 -17 -26 -18 5 -33 9 -34 9 0 0 -1 -13
-2 -30 0 -16 -4 -34 -7 -40 -11 -18 -23 -2 -17 25 2 14 -2 33 -9 42 -10 12
-10 14 -1 9 24 -15 12 18 -20 51 -38 39 -27 43 25 7z m3164 4 c-3 -8 -6 -5 -6
6 -1 11 2 17 5 13 3 -3 4 -12 1 -19z m-5930 -43 c42 -8 59 -47 43 -104 -6 -23
-20 -45 -32 -52 -20 -11 -103 -8 -115 4 -11 12 -21 92 -12 95 5 2 9 9 9 16 0
21 41 57 58 52 9 -2 31 -7 49 -11z m5798 5 c4 -6 24 -19 46 -30 31 -16 39 -26
39 -48 0 -15 5 -33 10 -38 17 -17 20 -52 4 -58 -27 -10 -14 -35 42 -80 31 -26
51 -46 46 -46 -5 0 -15 7 -22 15 -19 23 -79 49 -115 49 -26 1 -31 5 -28 21 2
11 1 14 -3 8 -3 -7 -12 -13 -20 -13 -26 0 -74 30 -74 46 0 9 -6 14 -13 11 -10
-4 -12 3 -9 25 4 29 32 93 32 75 0 -5 7 -1 16 8 9 8 14 24 11 35 -6 24 25 41
38 20z m122 -12 c-3 -8 -6 -5 -6 6 -1 11 2 17 5 13 3 -3 4 -12 1 -19z m-257
-56 c0 -31 -2 -28 -24 28 l-16 45 20 -24 c11 -13 20 -35 20 -49z m-1537 -24
c-2 -5 1 -8 7 -8 7 0 24 -9 38 -21 l27 -21 -30 8 c-17 4 -46 18 -65 32 -28 19
-30 23 -12 19 23 -5 24 -3 18 31 l-5 37 13 -35 c7 -19 11 -38 9 -42z m-7343 1
c0 -9 6 -19 13 -22 26 -10 -25 -19 -56 -10 -26 8 -31 14 -29 34 1 13 10 30 19
36 14 11 20 10 35 -4 10 -9 18 -24 18 -34z m8051 -54 c-19 -88 -29 -224 -19
-263 5 -20 12 -49 15 -64 3 -15 9 -26 13 -23 9 6 35 -23 27 -31 -3 -3 -23 4
-46 16 -40 20 -41 20 -41 1 0 -10 -9 -21 -20 -24 -13 -3 -20 -14 -20 -30 0
-14 -4 -29 -10 -32 -6 -4 -10 8 -10 30 0 35 -1 36 -32 33 l-33 -3 -6 -80 c-3
-44 -14 -100 -23 -125 -10 -26 -16 -63 -14 -88 2 -25 -1 -41 -7 -39 -5 2 -9
17 -9 33 5 81 10 122 15 118 17 -10 32 49 26 102 -7 66 -15 76 -77 98 -25 8
-37 15 -28 16 10 0 21 14 28 34 6 20 30 50 55 70 35 29 43 42 43 66 -1 17 2
33 5 37 4 3 7 -1 7 -10 0 -12 8 -17 26 -17 23 0 24 -1 9 -16 -15 -15 -14 -19
11 -45 15 -16 30 -29 33 -29 2 0 -5 10 -17 23 -26 28 -18 42 12 22 36 -26 44
-18 51 53 4 37 13 99 21 137 8 39 15 81 15 95 1 20 2 21 6 5 3 -10 0 -42 -6
-70z m-1905 60 c16 -12 16 -14 3 -15 -9 0 -22 7 -29 15 -16 19 0 19 26 0z
m-862 -22 c59 -40 61 -43 60 -93 -2 -79 -4 -91 -13 -85 -5 3 -12 1 -16 -5 -3
-5 -1 -10 4 -10 14 0 14 -57 1 -65 -7 -5 -8 -11 -1 -18 7 -9 -3 -12 -40 -11
-33 0 -45 -2 -37 -8 9 -7 4 -8 -14 -5 -17 2 -29 -1 -32 -9 -3 -8 -12 -14 -20
-14 -12 0 -14 7 -9 31 4 24 1 33 -16 45 -26 19 -27 40 -1 82 13 21 20 50 20
82 0 66 24 109 59 110 8 0 33 -12 55 -27z m1031 -18 c18 -14 36 -36 39 -49 7
-27 92 -86 124 -86 12 0 22 -4 22 -10 0 -12 -62 -1 -71 13 -4 5 -9 5 -13 -2
-9 -15 -57 -13 -77 2 -9 7 -18 21 -20 31 -2 10 -19 24 -36 31 -28 12 -35 12
-47 -1 -9 -9 -17 -10 -21 -4 -9 14 4 32 17 24 6 -4 8 1 3 15 -3 11 -2 21 3 21
5 0 12 9 15 20 7 27 21 25 62 -5z m2982 -17 c-3 -8 -6 -5 -6 6 -1 11 2 17 5
13 3 -3 4 -12 1 -19z m-593 -13 c-9 -14 -18 -25 -21 -25 -5 0 5 18 20 38 17
22 18 13 1 -13z m186 -19 c0 -2 -7 -7 -16 -10 -8 -3 -12 -2 -9 4 6 10 25 14
25 6z m390 -6 c0 -5 -7 -10 -16 -10 -8 0 -12 5 -9 10 3 6 10 10 16 10 5 0 9
-4 9 -10z m225 0 c-3 -5 -10 -10 -16 -10 -5 0 -9 5 -9 10 0 6 7 10 16 10 8 0
12 -4 9 -10z m-841 -29 c3 -5 -11 -21 -31 -37 l-37 -28 28 37 c31 40 32 41 40
28z m605 -34 c0 -21 -1 -21 -9 -2 -12 28 -12 37 0 30 6 -3 10 -16 9 -28z
m-387 7 c-18 -13 -21 -19 -11 -30 9 -11 9 -13 -2 -9 -11 4 -14 -8 -14 -60 0
-62 -13 -131 -14 -78 -1 12 -6 25 -11 28 -6 4 -8 11 -5 16 4 5 -1 9 -10 9 -8
0 -19 10 -24 22 l-8 23 -7 -23 c-8 -24 -26 -30 -26 -8 0 8 -10 16 -22 18 -21
3 -21 4 -3 21 14 15 20 16 26 5 7 -11 14 -10 39 4 28 16 30 16 30 0 0 -13 2
-14 9 -4 4 8 7 28 5 45 -2 20 -1 27 4 19 7 -10 11 -10 22 3 7 8 20 15 28 15
12 0 11 -4 -6 -16z m-2582 -19 c0 -8 7 -18 16 -23 10 -5 14 -14 9 -21 -5 -9
-14 -2 -30 21 -13 18 -21 36 -18 41 6 11 23 -2 23 -18z m2450 3 c0 -13 -23 -5
-28 10 -2 7 2 10 12 6 9 -3 16 -11 16 -16z m-1671 -20 c-24 -82 -42 -258 -27
-258 4 0 10 -11 14 -25 3 -13 15 -27 25 -30 11 -4 17 -10 14 -15 -3 -5 -16 -5
-31 0 -14 6 -36 10 -49 10 -21 0 -24 -6 -30 -57 -4 -32 -10 -76 -15 -98 -8
-34 -8 -32 -3 15 3 30 6 90 5 132 0 51 4 81 12 85 17 11 56 110 56 142 0 36
25 131 34 131 3 0 0 -15 -5 -32z m591 11 c13 -7 13 -8 0 -8 -8 0 -26 6 -40 15
l-25 15 25 -7 c14 -3 32 -10 40 -15z m-1730 -79 l-11 -25 6 25 c2 14 6 41 7
60 l1 35 4 -35 c2 -20 -1 -47 -7 -60z m3110 10 l0 -70 -30 0 c-16 0 -30 5 -30
10 0 6 9 10 20 10 18 0 20 7 20 53 0 47 5 67 17 67 2 0 3 -31 3 -70z m241 43
c13 -16 12 -17 -3 -4 -10 7 -18 15 -18 17 0 8 8 3 21 -13z m205 -29 c-8 -21
-15 -33 -15 -25 -1 11 -4 11 -16 1 -13 -11 -13 -16 2 -41 16 -26 16 -30 1 -41
-9 -7 -18 -22 -20 -33 -4 -25 -31 -31 -52 -10 -21 22 -21 46 0 38 13 -5 15 -3
6 13 -9 16 -3 27 35 64 24 25 49 53 55 63 16 31 19 13 4 -29z m-9203 -42 c-7
-59 -18 -62 -44 -12 -18 33 -18 34 1 52 11 10 20 24 20 31 0 7 5 6 15 -4 11
-11 13 -27 8 -67z m6299 64 c19 -8 40 -22 48 -30 7 -9 18 -16 26 -16 20 0 26
-17 8 -24 -8 -3 -13 -2 -10 3 9 13 -33 21 -60 11 -19 -8 -29 -5 -44 10 -18 18
-18 20 -2 29 10 6 12 11 5 11 -7 0 -13 5 -13 10 0 13 1 13 42 -4z m-217 -7
c11 -17 0 -20 -21 -4 -17 13 -17 14 -2 15 9 0 20 -5 23 -11z m2863 -14 c-3 -3
-9 2 -12 12 -6 14 -5 15 5 6 7 -7 10 -15 7 -18z m-7841 -46 c29 -56 0 -92 -68
-87 -42 3 -44 5 -47 37 -5 51 5 79 31 83 37 6 71 -7 84 -33z m7243 31 c-8 -5
-23 -10 -32 -10 -12 0 -15 -5 -11 -17 4 -11 3 -14 -5 -9 -7 4 -12 13 -12 21 0
12 13 16 65 23 6 1 3 -3 -5 -8z m768 -19 c-14 -19 -14 -19 -38 1 -21 16 -21
18 -4 9 17 -8 25 -7 34 4 18 22 25 10 8 -14z m-2882 -56 c16 -9 43 -39 58 -67
26 -46 27 -49 7 -39 -12 7 -21 16 -21 20 0 5 -29 38 -65 74 -64 64 -92 106
-37 55 15 -14 41 -33 58 -43z m2706 43 c-7 -7 -12 -21 -12 -33 0 -12 -4 -25
-9 -30 -5 -6 -17 -44 -26 -85 -10 -41 -20 -70 -22 -63 -2 6 4 47 15 92 l19 80
-36 4 -36 4 41 1 c32 2 43 6 47 22 3 11 11 20 18 20 10 0 10 -3 1 -12z m-312
-8 c12 -7 10 -11 -10 -18 -17 -6 -27 -6 -32 1 -15 24 13 35 42 17z m-330 -28
c0 -13 -2 -14 -9 -4 -6 10 -15 6 -35 -18 -33 -40 -34 -27 0 17 26 34 44 36 44
5z m215 -4 c-10 -49 -21 -53 -17 -8 2 22 8 40 14 40 6 0 7 -13 3 -32z m-2152
15 c-7 -2 -19 -2 -25 0 -7 3 -2 5 12 5 14 0 19 -2 13 -5z m75 1 c32 -9 28 -28
-5 -19 -32 7 -55 25 -32 25 7 0 24 -3 37 -6z m1655 -14 c14 -17 14 -20 2 -20
-8 0 -15 6 -15 14 0 8 -10 17 -22 19 -20 4 -21 4 -3 6 11 0 28 -8 38 -19z
m-2424 -6 c7 5 11 -5 11 -27 0 -34 -23 -57 -35 -37 -10 16 -19 12 -53 -21
l-31 -30 -15 36 c-28 67 -27 70 34 71 33 1 56 6 58 14 4 10 6 10 12 0 4 -7 13
-9 19 -6z m1490 -24 c0 -10 -3 -8 -9 5 -12 27 -12 43 0 25 5 -8 9 -22 9 -30z
m-1774 14 c0 -5 13 -34 28 -65 19 -37 39 -61 62 -73 18 -10 36 -29 39 -41 4
-15 15 -25 29 -27 12 -2 22 -10 21 -19 -1 -11 6 -14 27 -11 26 4 28 2 34 -44
4 -27 14 -60 23 -74 9 -14 25 -43 36 -65 11 -22 25 -43 30 -47 6 -4 7 -8 2 -8
-11 0 -88 60 -104 82 -21 29 -42 22 -44 -14 0 -18 -3 -46 -5 -63 -8 -58 -5
-76 13 -89 15 -11 20 -11 33 2 15 14 16 14 19 -1 4 -20 113 -77 147 -77 13 0
27 5 30 10 3 6 13 10 21 10 20 0 84 -65 84 -85 0 -9 6 -12 16 -8 10 4 7 -3 -8
-19 -15 -16 -37 -27 -63 -30 -57 -7 -67 -10 -86 -33 -15 -17 -19 -18 -34 -5
-11 9 -15 23 -11 41 4 20 -1 31 -22 48 -23 18 -25 23 -12 32 13 9 12 10 -2 5
-10 -3 -18 -2 -18 3 0 14 -84 50 -94 40 -6 -5 -17 -2 -27 7 -16 14 -18 13 -23
-13 -25 -120 -34 -299 -16 -332 6 -12 6 -30 0 -50 -8 -29 -7 -31 11 -26 11 4
19 2 19 -5 0 -16 -32 -70 -42 -70 -4 0 -8 -9 -8 -19 0 -11 -4 -23 -10 -26 -5
-3 -10 -17 -10 -29 0 -31 -24 -88 -33 -79 -4 3 -7 -28 -7 -71 0 -49 4 -75 10
-71 6 3 10 -3 10 -14 0 -11 4 -23 10 -26 5 -3 7 -20 3 -38 -5 -26 -3 -30 7
-20 7 7 13 28 12 48 -1 21 3 33 8 30 6 -4 17 1 26 9 8 9 21 16 29 16 10 0 11
-5 2 -25 -7 -14 -15 -25 -19 -25 -4 0 -15 -16 -24 -35 -9 -19 -22 -35 -29 -35
-12 0 -24 -26 -29 -63 -5 -33 181 -232 207 -221 9 3 13 12 11 19 -3 7 6 31 20
54 28 44 33 62 15 59 -6 -2 -14 3 -16 10 -3 6 2 12 11 12 9 0 16 6 16 14 0 7
11 25 25 40 20 21 29 25 44 17 24 -13 24 -13 71 86 21 46 41 83 43 83 3 0 8
-8 11 -17 4 -10 4 -14 0 -10 -5 4 -21 -20 -37 -55 -23 -49 -27 -66 -18 -80 25
-40 6 -103 -27 -91 -13 5 -14 -1 -9 -38 5 -43 4 -45 -29 -62 -44 -22 -55 -15
-47 26 4 24 3 29 -6 21 -6 -6 -13 -20 -16 -32 -2 -11 -7 -29 -12 -39 -7 -16
-8 -27 -4 -70 1 -7 7 -10 14 -8 6 3 26 -7 42 -21 17 -14 23 -23 14 -21 -9 3
-22 0 -28 -6 -8 -8 -11 -8 -11 2 0 7 -4 9 -10 6 -5 -3 -10 -1 -10 5 0 6 -5 8
-10 5 -6 -4 -8 -11 -5 -16 4 -5 1 -9 -4 -9 -36 0 17 -114 54 -116 27 -2 94
-33 73 -34 -9 0 -28 4 -42 10 -22 8 -26 7 -26 -8 0 -23 19 -42 41 -42 9 0 28
-11 42 -24 20 -19 34 -23 74 -20 45 3 46 3 15 -7 -18 -5 -32 -14 -30 -19 2 -4
40 -36 86 -70 46 -34 81 -64 78 -67 -3 -3 -27 11 -54 31 -27 20 -52 36 -55 36
-3 0 -7 -15 -9 -32 -3 -29 -6 -33 -32 -31 -38 3 -45 12 -23 28 11 8 14 16 8
19 -6 4 -8 19 -5 35 7 32 -18 50 -41 31 -10 -9 -14 -6 -17 12 -2 17 -12 24
-42 30 -24 5 -43 4 -51 -2 -9 -8 -12 -4 -11 12 1 18 7 22 26 20 24 -2 24 -2 5
12 -10 7 -25 11 -33 8 -10 -3 -13 0 -8 14 3 10 2 25 -3 33 -11 18 -41 24 -38
8 1 -7 -6 -11 -15 -9 -10 2 -18 -2 -18 -8 0 -13 27 -13 35 0 11 19 25 -1 24
-33 -1 -18 -3 -24 -6 -14 -3 11 -11 16 -19 13 -8 -3 -14 -1 -14 5 0 6 -7 8
-16 5 -8 -3 -12 -2 -9 4 3 6 -1 10 -9 10 -9 0 -16 7 -16 15 0 27 -1 30 -17 48
-9 10 -30 17 -50 17 -26 0 -33 -4 -33 -20 0 -11 6 -20 13 -21 10 0 10 -2 0 -6
-26 -10 -14 -33 17 -33 22 0 28 -4 24 -15 -4 -8 -13 -15 -21 -15 -11 0 -13 -7
-9 -27 11 -57 20 -128 17 -142 -1 -7 2 -10 8 -6 6 3 11 18 10 33 -1 15 2 39 6
55 6 21 4 27 -9 27 -9 0 -16 5 -16 10 0 6 9 10 19 10 11 0 23 5 27 12 5 8 0 9
-14 6 -12 -4 -22 -3 -22 2 0 11 30 21 43 14 7 -3 3 2 -7 10 -22 18 -17 30 8
20 9 -3 16 -17 16 -30 0 -25 15 -33 22 -12 3 7 7 5 11 -6 5 -12 3 -15 -6 -10
-7 4 -8 3 -4 -2 4 -4 18 -9 30 -9 18 0 22 -5 20 -27 -1 -16 2 -28 7 -28 5 0 5
-14 -1 -32 -5 -17 -8 -33 -6 -34 1 -1 20 4 42 11 41 15 51 14 40 -4 -3 -6 -19
-11 -34 -11 -33 0 -44 -24 -32 -68 4 -15 6 -33 5 -39 -1 -7 -2 -26 -3 -43 -1
-30 -21 -44 -21 -15 0 8 -4 15 -10 15 -5 0 -10 9 -10 19 0 18 -18 31 -42 31
-6 0 -8 -23 -4 -62 14 -139 12 -148 -28 -130 -23 10 -25 9 -29 -21 -3 -24 -4
-21 -5 15 -2 48 13 71 30 47 7 -10 8 -8 3 8 -3 12 -7 40 -8 62 -1 28 -4 36
-10 26 -4 -8 -5 -20 -2 -25 3 -6 1 -10 -5 -10 -6 0 -13 7 -16 15 -7 17 -34 21
-34 5 0 -5 -12 -10 -27 -11 l-28 -1 25 -7 c14 -4 20 -10 14 -13 -6 -4 -21 -1
-35 6 -24 12 -24 12 -21 -21 3 -20 10 -33 18 -33 8 0 14 -10 14 -26 0 -21 -3
-24 -14 -15 -20 17 -40 -12 -34 -52 3 -17 1 -45 -3 -62 -6 -25 -7 -21 -9 25
-5 97 -12 115 -51 126 -35 10 -40 25 -13 39 19 10 26 29 26 73 0 16 5 22 14
18 20 -8 68 23 82 52 12 27 7 46 -10 36 -7 -5 -8 -2 -4 5 5 7 14 10 22 7 11
-4 12 -2 4 14 -17 31 -11 47 9 23 10 -12 21 -20 24 -17 15 16 -26 263 -47 276
-19 13 -24 9 -19 -12 3 -11 0 -20 -6 -20 -6 0 -11 7 -11 15 0 8 -4 15 -10 15
-6 0 -10 -36 -10 -89 0 -50 -4 -92 -8 -95 -5 -3 -8 3 -8 12 0 9 -1 45 -2 80
-2 62 -2 62 -32 62 -24 0 -30 -4 -30 -21 0 -11 7 -27 15 -35 9 -9 15 -11 15
-4 0 6 5 8 10 5 6 -4 10 -32 9 -63 -2 -36 2 -57 9 -60 7 -2 12 -10 12 -18 0
-8 7 -14 15 -14 8 0 15 -7 15 -15 0 -20 -6 -19 -40 5 -15 11 -31 16 -35 12 -5
-4 -6 -2 -2 3 9 17 -16 40 -48 44 -16 2 -57 5 -90 7 -33 1 -63 3 -67 3 -5 1
-17 10 -28 21 -15 15 -20 16 -20 5 0 -8 8 -19 18 -24 12 -6 19 -22 20 -41 1
-27 -2 -30 -14 -19 -8 7 -13 18 -10 26 3 8 1 11 -4 8 -6 -3 -10 -1 -10 6 0 7
-3 10 -6 6 -3 -3 2 -29 11 -57 9 -28 15 -53 13 -55 -5 -6 -58 130 -58 149 0
17 -15 15 -59 -8 -32 -17 -33 -19 -26 -64 4 -26 12 -54 19 -62 6 -8 20 -33 30
-55 l18 -40 -26 24 c-14 14 -26 33 -26 44 0 16 -3 17 -15 7 -8 -7 -15 -8 -15
-3 0 6 -12 22 -27 37 -14 14 -23 29 -20 33 9 8 47 -27 47 -44 0 -7 5 -13 10
-13 6 0 10 1 10 3 -1 1 -7 25 -15 52 -8 31 -14 41 -14 26 -1 -23 -2 -24 -14
-6 -18 24 -65 15 -112 -21 -19 -15 -35 -23 -35 -20 0 4 -5 4 -11 0 -8 -4 -7
-9 2 -15 10 -6 7 -9 -11 -9 -25 -1 -25 -1 -5 -17 19 -15 19 -15 -10 -9 l-30 6
35 -20 c31 -18 32 -20 10 -18 -23 3 -25 -1 -28 -44 -3 -50 -4 -51 -73 -62 -32
-6 -38 -12 -62 -66 -15 -33 -27 -62 -27 -65 0 -10 -49 -115 -54 -115 -8 0 7
45 36 109 33 76 47 163 28 186 -7 8 -27 15 -46 15 -26 0 -33 -5 -37 -22 -3
-17 -6 -11 -12 20 -9 49 -8 49 -120 26 -44 -9 -113 -22 -153 -28 -40 -6 -70
-14 -67 -18 4 -4 -2 -4 -14 -1 -15 4 -21 1 -21 -11 0 -11 -9 -16 -32 -16 -30
1 -31 2 -15 14 9 7 17 18 17 23 0 6 37 13 83 17 45 3 107 13 137 21 30 8 65
15 77 15 12 0 34 5 50 12 15 6 31 11 36 10 4 -1 7 2 7 8 0 5 -4 10 -10 10 -5
0 -10 7 -10 15 0 14 17 20 48 16 29 -4 9 17 -23 23 -48 9 -46 30 3 23 20 -3
45 -8 55 -12 12 -5 17 -2 17 10 0 9 5 13 10 10 6 -4 8 -11 5 -16 -8 -12 -3
-11 30 1 17 7 24 7 20 0 -3 -6 -13 -10 -21 -10 -8 0 -14 -4 -14 -10 0 -5 13
-7 28 -4 20 4 34 0 45 -11 16 -16 17 -9 15 99 -3 113 -4 116 -25 116 -13 0
-23 -5 -23 -11 0 -5 -4 -8 -9 -4 -6 3 -8 14 -6 25 3 18 -2 20 -42 20 -45 0
-180 -34 -196 -49 -4 -5 8 -25 27 -45 20 -20 36 -42 36 -48 0 -7 -5 -5 -12 4
-21 27 -81 58 -111 58 -62 0 -227 -44 -227 -60 0 -20 13 -40 27 -40 8 0 11 -4
8 -10 -3 -5 -20 -7 -37 -3 -29 6 -31 5 -25 -18 4 -13 7 -32 7 -41 0 -13 9 -18
28 -19 23 -2 24 -2 5 -6 -15 -3 -23 -12 -24 -26 0 -12 -9 7 -19 42 -22 72 -23
74 -51 78 -34 5 -67 33 -62 51 2 10 -4 25 -15 35 -17 16 -20 15 -52 -18 -19
-19 -40 -35 -46 -35 -20 0 -27 19 -13 36 10 12 9 18 -3 31 -13 13 -22 14 -49
4 -17 -6 -37 -11 -43 -11 -19 1 27 30 46 30 11 0 18 6 17 13 -1 6 1 20 6 30 5
11 2 24 -9 36 -9 10 -16 25 -16 34 0 17 42 33 59 23 19 -12 21 14 4 46 -19 34
-66 88 -76 88 -13 0 -47 -45 -47 -61 0 -10 9 -24 21 -33 l21 -14 -20 -11 c-12
-6 -25 -11 -30 -11 -17 0 -57 42 -54 57 2 9 -10 30 -27 47 -18 18 -31 44 -32
61 -4 49 4 183 8 152 3 -17 13 -32 26 -37 12 -5 33 -20 46 -34 24 -27 43 -31
132 -26 36 1 51 -3 66 -19 14 -15 41 -23 108 -31 49 -6 90 -12 90 -13 0 -1 7
-10 14 -19 12 -16 7 -19 -48 -34 -33 -9 -58 -21 -55 -26 3 -4 9 -6 13 -4 4 3
5 -8 3 -25 -5 -32 20 -69 45 -69 8 0 11 -5 7 -11 -4 -7 0 -9 13 -5 16 5 23 0
31 -21 25 -67 24 -82 -8 -115 -35 -35 -35 -35 70 -3 30 9 80 21 110 27 58 11
82 24 65 36 -6 4 -10 17 -11 30 0 16 3 19 10 12 5 -5 17 -10 25 -10 8 0 23 -8
33 -17 18 -16 18 -16 12 0 -5 14 0 17 23 17 64 0 141 22 146 41 4 16 -1 19
-31 20 -64 2 -90 7 -123 24 -19 10 -63 18 -113 21 -72 3 -83 6 -101 29 -12 14
-26 25 -33 25 -7 0 -12 7 -12 16 0 14 11 15 88 9 52 -5 101 -15 122 -26 26
-14 30 -18 15 -19 -16 0 -17 -2 -5 -9 8 -6 18 -7 22 -5 4 3 8 1 8 -4 0 -11
120 -37 160 -35 14 1 31 -4 38 -9 9 -8 19 -8 35 0 12 5 31 13 42 17 l20 7 -20
8 c-18 8 -18 9 -2 9 10 1 16 5 13 10 -8 13 15 161 25 161 4 0 10 -9 14 -19 3
-11 15 -23 27 -27 23 -7 54 25 85 88 10 21 21 38 26 38 4 0 7 7 7 15 0 9 11
33 24 54 19 30 22 41 13 51 -9 10 -9 12 3 8 20 -7 24 27 7 65 -11 25 -16 29
-33 26 -4 0 -10 3 -13 8 -7 11 -73 46 -119 63 -57 22 -58 18 -48 -175 7 -119
7 -120 -11 -90 -14 23 -18 53 -19 130 -2 146 -3 157 -13 151 -5 -3 -12 1 -15
10 -3 8 -11 12 -17 8 -7 -4 -9 -3 -6 3 8 13 -27 37 -66 47 -42 10 -134 55
-117 57 44 5 128 -5 152 -17 15 -8 31 -14 36 -14 19 0 31 50 25 104 -4 39 -2
56 6 56 10 0 17 -50 13 -107 0 -16 5 -23 18 -23 16 0 24 -9 30 -35 1 -5 6 -16
12 -23 6 -7 8 -15 4 -19 -8 -8 49 -33 75 -33 26 0 24 10 -9 45 -15 17 -40 56
-56 87 -15 31 -34 62 -42 69 -8 6 -14 15 -14 20 0 5 -8 18 -17 28 -15 19 -17
19 -29 3 -12 -16 -13 -15 -14 3 0 29 -33 79 -84 128 -49 48 -66 75 -66 110 0
13 -6 24 -12 25 -30 3 -96 19 -107 27 -7 4 -19 22 -27 40 -11 27 -18 32 -35
28 -20 -5 -21 -3 -15 21 5 20 0 35 -19 60 -14 19 -25 46 -25 64 0 17 -4 33 -9
37 -6 3 -4 19 5 40 8 19 14 43 14 54 0 30 19 35 44 12 12 -12 25 -21 29 -21
14 0 66 -66 67 -84 0 -10 11 -27 25 -38 14 -11 25 -26 25 -34 0 -8 13 -27 28
-42 16 -15 35 -47 42 -72 13 -44 55 -94 70 -85 19 12 35 -34 47 -135 3 -25 11
-49 19 -53 8 -4 14 -13 14 -18 0 -6 13 -24 30 -42 16 -18 30 -35 30 -38 0 -7
86 -118 125 -162 14 -15 25 -31 25 -36 0 -15 71 -72 82 -65 7 4 8 3 4 -5 -6
-9 0 -10 21 -5 15 4 29 10 31 13 1 3 13 29 26 56 l23 50 -3 -50 c-3 -47 -3
-48 6 -15 10 35 29 215 30 280 0 19 7 62 15 95 l15 60 -6 -100 c-7 -116 -20
-265 -28 -315 l-5 -35 14 40 c7 22 14 34 14 26 1 -21 31 7 31 30 0 11 5 19 10
19 13 0 13 -37 0 -45 -17 -11 -52 -86 -46 -101 3 -9 -1 -14 -12 -15 -28 -1 39
-28 72 -29 16 0 27 -3 23 -6 -3 -3 -22 -6 -42 -6 -28 0 -35 -3 -31 -15 7 -16
-8 -47 -35 -77 -25 -26 -24 -35 6 -46 14 -5 25 -12 25 -15 0 -4 -6 -3 -12 1
-7 4 -3 -3 10 -15 12 -12 26 -20 31 -16 5 3 11 -1 14 -7 3 -10 7 -10 21 1 21
18 31 8 17 -17 -15 -28 -14 -45 3 -39 18 7 36 -12 36 -39 0 -12 7 -24 15 -28
13 -4 13 -2 5 14 -7 14 -6 22 5 34 11 10 12 17 4 22 -6 3 -15 1 -19 -6 -5 -7
-10 -8 -14 -2 -6 10 9 25 35 34 13 5 15 -2 12 -54 -3 -41 -1 -58 6 -53 6 3 26
-5 44 -19 42 -32 77 -34 77 -6 0 11 -6 20 -12 20 -9 0 -8 3 2 10 8 5 12 10 10
12 -3 2 -18 10 -35 18 -28 15 -30 20 -31 73 -1 31 -6 63 -12 69 -18 24 -25 80
-11 90 11 7 11 11 2 15 -20 7 -16 43 5 43 14 0 15 2 3 9 -12 8 -10 12 12 22
15 7 27 18 27 26 0 8 7 25 16 38 16 25 21 92 15 208 -3 54 -12 70 -27 46 -4
-7 -10 -7 -16 -1 -7 7 0 26 21 57 17 25 34 58 37 73 4 15 12 36 18 47 14 23
33 87 40 130 2 17 9 60 16 97 14 79 11 113 -10 114 -47 2 -140 33 -140 46 0 7
-30 5 -50 -2 -12 -5 -56 3 -64 11 -6 5 -20 9 -32 9 -17 0 -24 9 -33 45 -10 39
-16 46 -41 52 -33 6 -39 27 -13 41 14 9 14 10 -5 16 -12 4 -22 14 -22 22 0 8
-8 18 -17 21 -10 4 -22 12 -26 20 -4 7 -20 13 -35 13 -23 1 -25 2 -9 11 9 5
17 20 17 32 0 38 14 49 61 45 38 -3 44 -6 47 -28 2 -14 8 -29 13 -34 5 -6 9
-18 9 -28 0 -10 5 -18 10 -18 6 0 10 -7 10 -15 0 -22 34 -35 80 -31 42 3 80
29 80 53 0 8 5 11 10 8 6 -4 8 -15 5 -26 -6 -18 10 -28 17 -11 2 5 14 5 28 1
23 -7 24 -8 5 -14 -11 -3 -29 -20 -40 -36 -11 -17 -32 -33 -48 -36 -26 -5 -27
-7 -12 -23 9 -10 17 -26 18 -37 0 -10 9 -20 18 -20 26 -2 119 -44 119 -54 0
-5 7 -6 15 -3 8 4 15 1 15 -5 0 -23 28 -9 44 22 8 17 16 26 16 18 0 -8 2 -12
5 -9 3 3 8 37 11 76 5 62 3 75 -16 102 -12 16 -28 30 -36 30 -13 0 -19 13 -15
34 3 17 -35 34 -69 30 -38 -5 -32 1 13 10 30 7 37 26 9 26 -10 0 -24 6 -31 13
-10 10 -16 7 -32 -12 -10 -13 -19 -30 -19 -38 0 -9 -6 -13 -14 -10 -8 3 -17 1
-20 -6 -4 -7 -3 2 1 18 3 17 7 41 7 55 0 14 5 28 10 32 6 4 -3 23 -22 47 -37
46 -38 49 -13 78 29 35 86 53 86 27z m2572 10 c-3 -3 -12 -4 -19 -1 -8 3 -5 6
6 6 11 1 17 -2 13 -5z m-52 -14 c-11 -5 -31 -8 -45 -8 -23 0 -22 1 5 8 42 11
65 11 40 0z m-3745 -20 c58 -6 121 -15 139 -20 27 -7 39 -6 52 5 22 21 49 9
49 -21 0 -27 -17 -32 -34 -8 -16 21 -48 7 -45 -20 3 -29 -9 -56 -39 -88 -36
-39 -91 -39 -123 1 -24 30 -39 31 -89 4 -34 -17 -81 -16 -108 3 -17 12 -22 25
-22 59 0 83 21 108 85 99 17 -2 77 -8 135 -14z m1955 10 c3 -5 3 -15 -1 -21
-6 -11 -23 6 -24 24 0 10 18 9 25 -3z m83 -32 c4 -19 -45 -40 -78 -34 -14 2
-32 6 -40 7 -8 1 5 5 30 8 26 3 44 11 43 17 -1 7 6 10 20 7 18 -4 19 -3 7 7
-13 10 -13 11 0 7 8 -2 16 -11 18 -19z m2262 -42 c-12 -30 -28 -60 -36 -67 -8
-6 0 20 18 58 39 83 51 88 18 9z m87 -13 c-2 -16 -4 -3 -4 27 0 30 2 43 4 28
2 -16 2 -40 0 -55z m-9388 53 c7 -8 15 -31 18 -51 7 -45 -7 -57 -49 -43 -63
22 -65 108 -2 108 12 0 27 -6 33 -14z m7451 -6 c57 -29 49 -42 -12 -19 -29 10
-54 19 -55 19 -2 0 -3 5 -3 10 0 16 27 12 70 -10z m-364 -8 c-2 -2 7 -14 21
-28 14 -14 23 -28 19 -31 -3 -3 -21 10 -41 30 -30 30 -32 36 -16 34 11 -1 19
-3 17 -5z m1191 -28 c-3 -3 -12 -4 -19 -1 -8 3 -5 6 6 6 11 1 17 -2 13 -5z
m-235 -44 c6 0 8 -9 5 -20 -3 -11 3 -30 12 -41 16 -21 19 -21 49 -5 53 27 49
18 -8 -23 -30 -22 -57 -38 -59 -36 -2 2 -25 -5 -52 -16 -55 -21 -69 -23 -69
-10 0 5 15 12 33 16 17 4 47 12 65 18 30 10 32 14 26 42 -3 16 -10 34 -15 40
-5 5 -8 25 -8 45 1 23 3 27 6 13 2 -13 9 -23 15 -23z m-7246 -39 c-7 -45 -20
-58 -42 -41 -18 16 -14 71 7 97 20 23 42 -13 35 -56z m5751 29 c30 0 34 -2 23
-15 -7 -8 -21 -15 -31 -15 -10 0 -21 -4 -24 -10 -3 -5 -15 -10 -25 -10 -10 0
-23 -7 -28 -16 -8 -14 -10 -13 -16 9 -7 31 1 57 20 57 8 0 14 10 15 23 l0 22
16 -22 c11 -17 25 -23 50 -23z m1122 31 c9 -6 4 -10 -18 -13 -21 -3 -31 0 -31
9 0 15 28 17 49 4z m1041 5 c0 -11 -19 -15 -25 -6 -3 5 1 10 9 10 9 0 16 -2
16 -4z m351 -25 c-6 -19 0 -31 28 -59 l36 -35 -37 27 c-20 14 -41 26 -47 26
-9 0 -27 -57 -22 -74 1 -5 -5 -4 -13 3 -8 7 -20 10 -25 7 -6 -4 -15 3 -21 14
-12 22 5 65 34 89 14 12 16 10 17 -10 1 -21 2 -21 11 6 12 39 49 44 39 6z
m823 -4 c-3 -8 -12 -18 -20 -21 -11 -4 -10 0 3 18 20 26 27 28 17 3z m-8571
-6 c-2 -6 0 -10 5 -10 26 4 39 -5 47 -33 7 -23 15 -32 27 -30 17 3 24 -19 30
-93 3 -29 2 -30 -37 -26 -22 1 -44 6 -50 9 -5 4 -18 5 -27 4 -15 -3 -18 4 -18
36 0 29 -6 43 -21 54 -18 11 -20 20 -14 46 3 18 14 39 22 48 17 16 40 13 36
-5z m7377 -13 c0 -5 19 -28 42 -49 51 -46 45 -53 -6 -8 -20 17 -41 27 -47 23
-14 -8 -29 14 -29 44 0 20 3 21 20 12 11 -6 20 -16 20 -22z m-1661 -9 c15 -34
9 -48 -14 -29 -15 13 -21 60 -7 60 4 0 13 -14 21 -31z m172 14 c13 -16 12 -17
-3 -4 -10 7 -18 15 -18 17 0 8 8 3 21 -13z m1574 7 l20 -9 -20 0 c-11 0 -29 4
-40 9 l-20 9 20 0 c11 0 29 -4 40 -9z m622 -57 c-2 -16 -4 -5 -4 22 0 28 2 40
4 28 2 -13 2 -35 0 -50z m-1434 50 c-7 -2 -19 -2 -25 0 -7 3 -2 5 12 5 14 0
19 -2 13 -5z m-2324 -65 c-12 -16 -21 -44 -22 -63 -1 -19 -6 -35 -11 -35 -27
0 36 -39 94 -59 86 -29 132 -54 119 -62 -6 -4 -23 0 -38 7 -32 17 -151 19
-151 3 0 -6 -7 -9 -14 -6 -11 4 -13 1 -9 -10 4 -11 2 -14 -8 -11 -7 2 -25 -6
-39 -19 -29 -27 -48 -29 -76 -5 -32 27 -44 56 -44 109 0 55 4 63 45 83 17 8
33 19 37 24 4 6 13 4 22 -3 9 -8 16 -10 16 -6 0 4 7 2 15 -5 20 -17 32 -4 19
18 -16 25 31 99 51 82 13 -11 12 -16 -6 -42z m1616 6 c16 -20 22 -35 15 -32
-18 6 -65 68 -52 68 5 0 22 -16 37 -36z m1375 16 c0 -5 -8 -10 -17 -10 -15 0
-16 2 -3 10 19 12 20 12 20 0z m613 -5 c-3 -9 -8 -14 -10 -11 -3 3 -2 9 2 15
9 16 15 13 8 -4z m323 -86 c-9 -19 -14 -25 -11 -14 2 11 7 43 12 70 8 48 8 49
11 14 2 -20 -4 -52 -12 -70z m-9578 34 c10 -29 8 -34 -9 -43 -34 -18 -59 -3
-59 35 0 42 27 73 45 53 7 -7 17 -28 23 -45z m8522 19 c0 -21 -2 -24 -10 -12
-13 20 -13 53 0 45 6 -3 10 -18 10 -33z m1104 16 c-15 -49 -25 -71 -30 -66 -3
3 3 24 12 47 17 43 30 57 18 19z m-850 -77 c74 -96 74 -96 47 -125 -27 -29
-53 -36 -29 -8 34 38 32 59 -15 109 -24 27 -54 64 -67 83 l-24 35 23 -20 c13
-11 42 -44 65 -74z m-1138 -49 c7 -64 37 -101 63 -78 21 18 77 30 85 17 8 -12
-24 -30 -57 -33 -28 -2 -26 -24 4 -33 10 -4 19 -12 19 -19 0 -15 -42 -36 -70
-36 -28 0 -25 -17 5 -24 14 -4 25 -11 25 -17 0 -5 11 -27 25 -47 14 -20 25
-42 25 -49 0 -19 -27 -4 -33 18 -3 10 -12 19 -21 19 -9 0 -16 5 -16 12 0 17
-41 58 -57 58 -8 0 -13 8 -12 18 3 32 -1 36 -16 16 -19 -25 -19 -32 3 -39 13
-3 20 -16 21 -38 3 -57 9 -121 16 -159 5 -28 13 -38 32 -43 45 -11 10 -28 -41
-21 -51 8 -56 15 -26 34 11 7 20 22 20 35 0 36 -12 67 -24 66 -6 -1 -23 -1
-38 0 -24 1 -27 4 -23 31 2 20 -1 30 -9 30 -9 0 -12 -9 -8 -25 3 -19 0 -25
-12 -25 -12 0 -16 7 -14 23 5 33 17 47 41 48 l22 0 -22 16 c-13 8 -23 21 -23
28 0 7 -7 16 -16 19 -8 3 -12 10 -9 16 3 5 2 10 -4 10 -5 0 -13 -4 -16 -10 -3
-5 -17 -10 -31 -10 -21 0 -24 5 -24 35 0 19 5 35 11 35 5 0 7 -4 4 -10 -3 -6
1 -7 9 -4 9 3 14 11 13 17 -1 7 10 13 26 15 21 3 27 9 27 26 0 13 7 29 15 36
13 11 15 8 15 -18 0 -18 6 -32 15 -36 9 -3 15 -13 13 -22 -2 -11 6 -20 23 -24
28 -8 59 3 41 14 -6 4 -10 57 -9 134 0 70 2 109 4 87 1 -22 6 -64 9 -93z m198
96 c38 -14 54 -24 42 -26 -20 -4 -103 24 -111 39 -9 13 1 11 69 -13z m1399 14
c-24 -15 -32 -56 -17 -90 12 -30 12 -32 -6 -32 -27 0 -25 -16 5 -46 14 -14 25
-26 25 -28 0 -3 -129 60 -136 66 -2 3 9 3 26 0 26 -4 31 0 43 29 8 19 22 51
31 72 8 20 21 37 28 37 10 0 10 -2 1 -8z m-671 -27 c-2 -14 -11 -25 -18 -25
-12 0 -11 5 2 25 9 14 17 25 19 25 1 0 0 -11 -3 -25z m867 -74 c1 -64 -5 -47
-12 29 -3 39 -2 55 3 40 4 -14 8 -45 9 -69z m-2129 47 c0 -6 -7 -5 -15 2 -8 7
-15 17 -15 22 0 6 7 5 15 -2 8 -7 15 -17 15 -22z m786 -14 c-7 -18 -33 -18
-33 1 0 8 4 12 8 10 3 -3 10 5 14 18 6 19 8 20 12 4 3 -10 2 -25 -1 -33z m832
-19 c-34 -36 -63 -63 -66 -61 -7 7 101 126 115 126 6 0 -16 -29 -49 -65z m810
-24 c9 8 7 2 -5 -11 -12 -14 -27 -38 -32 -53 -10 -25 -9 -29 9 -34 24 -6 21
-29 -4 -27 -9 1 -16 -2 -16 -6 0 -5 -20 -32 -45 -61 -47 -55 -54 -75 -32 -99
10 -12 9 -12 -8 0 -11 8 -26 21 -32 29 -12 13 -13 13 -13 0 0 -9 14 -28 30
-42 26 -24 44 -67 22 -53 -5 3 -8 -3 -8 -12 0 -9 -6 -45 -14 -79 -11 -51 -18
-63 -33 -63 -14 0 -17 -3 -9 -12 13 -16 13 -20 3 -56 -8 -27 -7 -28 25 -24 21
3 34 0 34 -7 0 -17 -66 -13 -80 4 -10 12 -26 15 -69 10 -51 -5 -54 -4 -37 10
11 8 36 15 56 15 45 0 48 3 42 36 -3 20 -7 23 -14 12 -6 -9 -7 -6 -3 9 4 14
-2 29 -18 47 -28 30 -57 34 -58 9 0 -11 -3 -13 -6 -5 -2 6 -9 10 -14 6 -13 -8
-11 10 3 24 18 18 -14 46 -87 76 -33 14 -53 25 -45 26 8 0 43 -12 78 -27 34
-14 65 -24 68 -21 10 11 -27 116 -50 143 -20 24 -29 27 -59 21 -25 -5 -38 -2
-47 9 -7 9 -10 18 -7 22 4 3 9 -1 13 -10 4 -11 14 -14 40 -10 19 3 40 1 48 -6
8 -6 18 -11 22 -10 23 4 32 -3 27 -21 -7 -25 25 -63 45 -55 8 3 25 -2 38 -10
26 -17 33 -10 10 9 -8 6 -17 22 -21 36 -4 17 -3 21 3 11 14 -20 25 5 12 29 -7
13 -7 20 0 20 5 0 10 -4 10 -9 0 -9 33 -24 53 -26 4 0 12 -7 17 -15 7 -10 10
-11 10 -2 0 7 11 30 24 51 13 21 30 58 37 82 7 24 22 57 33 74 11 16 21 34 22
40 0 5 2 30 4 55 l4 45 3 -53 c4 -49 6 -52 21 -41z m52 50 c-29 -42 -34 -39
-8 4 11 20 23 34 25 31 3 -3 -5 -19 -17 -35z m-1260 20 c0 -6 -4 -13 -10 -16
-5 -3 -14 -20 -19 -38 l-9 -32 1 40 c0 37 10 54 30 55 4 0 7 -4 7 -9z m1035
-13 c-4 -13 -9 -37 -10 -55 -8 -94 -18 -151 -27 -164 -7 -10 -8 -8 -4 11 4 14
9 61 12 105 7 101 12 125 25 125 7 0 9 -8 4 -22z m-455 -31 c13 -9 20 -17 14
-17 -16 0 -54 30 -54 43 0 8 3 9 8 1 4 -5 18 -18 32 -27z m-735 13 c-3 -5 -14
-10 -23 -9 -14 0 -13 2 3 9 27 11 27 11 20 0z m-7539 -37 c31 -18 39 -71 16
-97 -12 -13 -24 -52 -32 -98 -7 -43 -16 -78 -19 -78 -3 0 -15 7 -25 15 -11 8
-31 15 -46 15 -37 0 -72 27 -68 53 2 12 9 21 16 20 6 -2 12 6 12 16 0 11 3 28
6 38 4 13 3 14 -4 5 -7 -11 -10 -11 -15 2 -4 10 -1 16 8 16 8 0 15 7 15 15 0
11 8 13 30 9 35 -8 37 1 13 51 -14 29 -15 38 -4 44 13 8 57 -4 97 -26z m7634
33 c0 -3 -4 -8 -10 -11 -5 -3 -10 -1 -10 4 0 6 5 11 10 11 6 0 10 -2 10 -4z
m-7430 -17 c0 -6 9 -9 20 -6 11 3 20 1 20 -4 0 -6 9 -19 20 -31 26 -29 25 -38
-5 -38 -18 0 -26 7 -31 24 -3 13 -14 26 -25 29 -19 5 -27 37 -9 37 6 0 10 -5
10 -11z m6400 -29 c0 -34 -4 -41 -25 -46 -14 -3 -25 -13 -25 -23 0 -9 -9 -22
-20 -29 -11 -7 -20 -11 -20 -9 0 15 24 67 30 67 5 0 6 15 3 34 -4 28 -2 35 13
39 40 10 44 7 44 -33z m636 19 c30 -18 45 -39 29 -39 -16 0 -63 31 -68 45 -8
20 -1 19 39 -6z m159 -57 c13 -11 48 -23 77 -28 45 -7 48 -8 21 -12 -18 -2
-48 1 -67 7 -20 5 -34 6 -33 3 1 -4 -4 -22 -12 -40 -10 -25 -17 -30 -26 -22
-11 9 -12 7 -8 -9 6 -25 -12 -28 -21 -4 -6 14 -8 15 -19 1 -6 -9 -22 -19 -35
-23 -22 -6 -23 -5 -17 29 7 35 6 36 -24 36 -22 0 -29 4 -25 14 12 30 74 -8 69
-43 -1 -9 0 -11 2 -4 2 7 13 15 23 18 11 3 21 20 25 41 5 30 2 41 -17 63 -13
14 -27 29 -33 33 -6 5 -6 8 1 8 6 0 19 -9 29 -20 26 -28 45 -25 46 8 1 27 1
27 10 -5 5 -17 20 -40 34 -51z m-3938 34 c33 -31 43 -134 17 -170 -12 -16 -29
-25 -46 -26 -15 0 -30 -4 -33 -10 -7 -12 -50 8 -93 45 -25 21 -30 32 -27 62 1
21 8 39 14 41 6 2 11 11 11 20 1 20 29 56 50 65 26 10 84 -5 107 -27z m3073
24 c0 -5 -4 -10 -10 -10 -5 0 -10 5 -10 10 0 6 5 10 10 10 6 0 10 -4 10 -10z
m2130 -13 c10 -4 8 -6 -7 -6 -16 -1 -23 5 -23 17 0 10 3 13 8 6 4 -6 14 -14
22 -17z m-8001 -57 c17 -28 31 -55 31 -60 0 -6 4 -10 9 -10 16 0 31 -58 17
-69 -16 -14 -57 -8 -86 12 -24 16 -25 16 -38 -8 -7 -14 -21 -25 -32 -25 -19 0
-53 26 -61 47 -2 5 -20 16 -39 26 l-35 17 51 0 c46 0 52 3 58 24 4 17 15 26
36 31 24 5 32 14 37 36 3 16 9 29 13 29 5 0 22 -23 39 -50z m8078 8 c-3 -7 -5
-2 -5 12 0 14 2 19 5 13 2 -7 2 -19 0 -25z m-1467 -17 c-1 -13 -3 -13 -15 3
-19 26 -19 42 0 26 8 -7 15 -20 15 -29z m-7866 -2 c37 -44 35 -69 -7 -69 -49
0 -84 46 -65 83 13 26 43 21 72 -14z m757 11 c10 -6 19 -18 19 -27 0 -12 -7
-14 -31 -9 -18 3 -38 1 -45 -5 -9 -8 -15 -5 -24 11 -11 21 -9 23 35 33 11 3
21 5 23 6 2 0 12 -4 23 -9z m8429 -32 c0 -28 -3 -39 -10 -32 -9 9 -3 74 6 74
2 0 4 -19 4 -42z m-954 -36 c-4 -3 -11 -1 -17 5 -7 7 -6 19 3 39 l13 29 3 -34
c2 -18 1 -36 -2 -39z m513 -12 c77 -75 83 -79 99 -63 16 16 18 15 26 -10 12
-33 26 -36 20 -4 l-5 22 17 -22 c10 -15 27 -23 46 -23 l29 0 -25 -22 c-31 -28
-23 -47 25 -58 l34 -8 -40 -1 c-37 -1 -42 -4 -53 -34 -7 -18 -13 -47 -13 -63
-2 -24 -3 -22 -8 11 -6 36 -9 40 -38 41 -31 1 -33 -1 -33 -32 0 -19 -4 -34 -8
-34 -5 0 -14 -10 -20 -22 -8 -18 -9 -2 -5 67 4 73 2 88 -8 78 -12 -12 -69 -19
-69 -9 0 22 17 36 41 36 35 0 40 27 7 32 -20 4 -18 6 12 14 l35 10 -65 70
c-122 128 -122 142 -1 24z m521 62 c0 -12 -3 -12 -15 -2 -8 7 -15 13 -15 15 0
1 7 2 15 2 8 0 15 -7 15 -15z m-3026 -44 c6 -28 0 -33 -27 -22 -14 5 -14 22 0
64 4 13 5 13 12 0 5 -8 11 -27 15 -42z m2674 7 c0 -25 -4 -43 -7 -40 -3 3 -11
-5 -19 -17 -10 -18 -12 -18 -6 -3 4 11 12 39 18 63 6 23 12 42 13 42 2 0 2
-20 1 -45z m425 25 c3 -11 1 -20 -4 -20 -5 0 -9 9 -9 20 0 11 2 20 4 20 2 0 6
-9 9 -20z m-8434 -31 c-9 -6 -4 -7 15 -3 19 5 27 3 23 -3 -4 -6 0 -30 8 -53 8
-23 15 -47 15 -52 0 -10 -58 20 -99 51 -24 18 -24 19 -7 55 15 32 19 35 38 25
17 -9 18 -13 7 -20z m6786 21 c-27 -12 -43 -12 -25 0 8 5 22 9 30 9 10 0 8 -3
-5 -9z m65 6 c0 -2 -7 -7 -16 -10 -8 -3 -12 -2 -9 4 6 10 25 14 25 6z m-2020
-15 c17 -5 21 -9 12 -15 -6 -4 -17 -4 -23 -1 -5 4 -31 10 -57 15 l-47 8 45 0
c25 0 56 -3 70 -7z m3540 5 c0 -2 -9 -6 -20 -9 -11 -3 -18 -1 -14 4 5 9 34 13
34 5z m-775 -53 c-44 -40 -47 -45 -23 -39 16 4 30 1 34 -6 5 -7 3 -8 -6 -3 -7
4 -16 2 -20 -5 -6 -9 -12 -9 -29 -1 -21 12 -29 31 -12 31 4 0 28 16 52 35 61
49 64 43 4 -12z m560 17 c10 -11 16 -20 13 -20 -3 0 -13 9 -23 20 -10 11 -16
20 -13 20 3 0 13 -9 23 -20z m-8365 -4 c0 -9 -7 -12 -20 -9 -11 3 -17 9 -14
14 8 14 34 10 34 -5z m7416 -68 c-8 -108 -37 -218 -57 -218 -4 0 1 21 12 46
17 37 37 165 39 242 0 6 3 12 6 12 4 0 4 -37 0 -82z m554 47 c0 -5 -5 -3 -10
5 -5 8 -10 20 -10 25 0 6 5 3 10 -5 5 -8 10 -19 10 -25z m-7902 13 c7 -7 12
-23 12 -36 0 -20 -4 -22 -22 -16 -31 9 -31 9 -24 39 7 28 16 31 34 13z m8422
-10 c0 6 4 12 8 12 5 0 8 -15 8 -34 -1 -38 -15 -38 -33 1 -17 37 -16 51 2 27
8 -11 15 -14 15 -6z m132 -13 c-7 -29 -22 -38 -38 -22 -4 4 0 7 8 7 9 0 19 12
22 26 9 36 16 26 8 -11z m-2829 -29 c24 -24 54 -47 68 -51 33 -10 149 -65 149
-71 0 -2 -17 3 -37 12 -21 8 -58 22 -83 31 -83 28 -170 84 -170 110 0 25 30
13 73 -31z m2647 34 c0 -5 -4 -10 -10 -10 -5 0 -10 5 -10 10 0 6 5 10 10 10 6
0 10 -4 10 -10z m-6701 -48 c28 -23 31 -31 25 -59 -3 -18 -11 -31 -18 -30 -6
1 -10 -4 -8 -11 1 -7 -12 -26 -30 -43 -18 -16 -40 -51 -49 -77 l-16 -47 1 60
c1 59 1 60 -33 71 -68 22 -86 81 -40 130 12 13 33 24 46 24 13 0 26 6 29 14 7
19 50 5 93 -32z m3411 33 c7 -8 8 -15 3 -15 -4 0 -7 -18 -5 -39 3 -25 -2 -48
-11 -61 -14 -21 -15 -18 -19 40 -2 46 1 64 10 68 11 4 11 6 0 13 -8 5 -9 9 -2
9 6 0 17 -7 24 -15z m2850 -6 c0 -6 -4 -7 -10 -4 -5 3 -10 11 -10 16 0 6 5 7
10 4 6 -3 10 -11 10 -16z m-1116 -5 c3 -8 2 -12 -4 -9 -6 3 -10 10 -10 16 0
14 7 11 14 -7z m247 -39 c-5 -27 -7 -65 -5 -84 3 -27 2 -31 -4 -16 -5 11 -11
23 -12 28 -4 11 21 130 26 125 2 -3 0 -27 -5 -53z m409 36 c0 -26 -10 -51 -21
-51 -5 0 -9 9 -9 19 0 11 -4 23 -10 26 -18 11 -10 25 15 25 18 0 25 -5 25 -19z
m194 4 c3 -8 1 -15 -4 -15 -6 0 -10 4 -10 9 0 5 -10 12 -22 14 -21 4 -20 4 3
6 16 0 29 -5 33 -14z m1136 -26 c0 -21 -33 -3 -43 24 -6 16 -5 16 18 1 14 -9
25 -20 25 -25z m-9456 6 c15 -12 17 -17 7 -29 -27 -33 -111 -27 -111 7 0 36
67 50 104 22z m1860 9 c22 -8 10 -24 -19 -24 -25 0 -39 12 -28 24 8 8 27 8 47
0z m-1157 -26 c-3 -8 -6 -5 -6 6 -1 11 2 17 5 13 3 -3 4 -12 1 -19z m6123 -36
c4 -32 1 -52 -5 -54 -6 -2 -3 -11 7 -20 17 -17 18 -17 18 5 0 19 3 17 16 -10
9 -18 20 -33 25 -33 5 0 9 -7 9 -15 0 -24 30 -32 104 -28 52 3 67 2 56 -6 -8
-6 -46 -11 -83 -11 l-69 0 6 -45 7 -45 -26 12 c-14 6 -25 16 -25 22 0 6 -6 4
-13 -4 -7 -8 -23 -16 -37 -17 -14 0 -38 -3 -55 -4 -27 -4 -30 -1 -27 23 1 14
-2 29 -8 33 -16 10 -12 42 8 50 16 6 16 7 -2 21 -17 12 -17 14 -3 14 9 0 27 5
40 11 22 10 24 16 20 62 -2 28 -2 61 2 75 10 39 30 19 35 -36z m329 37 c-16
-10 -23 -4 -14 10 3 6 11 8 17 5 6 -4 5 -9 -3 -15z m668 -1 c-3 -8 -6 -5 -6 6
-1 11 2 17 5 13 3 -3 4 -12 1 -19z m-4612 4 c34 -24 46 -105 23 -154 -14 -29
-45 -40 -120 -43 -32 -1 -48 2 -48 10 0 7 -6 25 -14 41 -22 46 -10 91 34 123
38 27 103 39 125 23z m5105 -11 c-32 -61 -265 -261 -303 -261 -6 0 -8 3 -4 6
3 3 2 17 -3 30 -11 29 3 32 16 4 9 -20 10 -20 54 10 77 52 129 97 187 165 60
68 70 78 53 46z m220 6 c-14 -7 -31 -25 -38 -41 -20 -40 -26 -25 -8 18 12 29
20 36 43 36 l28 0 -25 -13z m-7540 -42 c0 -28 -4 -35 -20 -35 -23 0 -26 -10
-8 -28 15 -15 3 -15 -39 0 -42 15 -42 28 2 67 48 41 65 40 65 -4z m6550 -31
c0 -9 -61 30 -78 50 -9 11 4 5 31 -13 26 -17 47 -34 47 -37z m-7452 39 c12
-23 -3 -63 -23 -63 -20 0 -29 23 -21 55 7 29 31 33 44 8z m7513 -16 c-8 -8
-11 -7 -11 4 0 20 13 34 18 19 3 -7 -1 -17 -7 -23z m246 -49 c7 -40 15 -84 18
-97 2 -13 9 -27 16 -31 6 -5 9 -15 6 -24 -12 -31 19 -16 36 17 l16 32 -2 -45
c-2 -38 1 -45 18 -45 13 0 19 -6 17 -17 -2 -11 5 -18 20 -20 53 -7 20 -85 -39
-92 -61 -8 -103 -49 -103 -103 0 -17 -10 -38 -25 -52 l-25 -23 0 32 c0 24 4
31 14 27 10 -4 13 -1 10 8 -3 8 -13 11 -22 7 -14 -5 -15 -3 -4 10 10 13 10 17
-4 22 -27 10 -36 7 -30 -11 3 -11 -5 -31 -19 -48 -61 -76 -67 -79 -34 -20 18
33 35 75 38 94 7 39 26 52 34 22 5 -20 21 -22 47 -6 13 8 13 7 1 -8 -8 -10
-12 -20 -9 -22 3 -3 11 2 18 10 9 11 10 19 2 27 -7 7 -7 19 -1 36 5 13 7 34 3
45 -5 15 -3 19 9 14 20 -7 27 12 15 37 -7 12 -7 16 0 12 5 -3 18 4 28 15 13
14 14 18 3 14 -8 -3 -23 1 -34 9 -11 9 -14 16 -7 16 13 0 17 30 4 30 -4 0 -14
39 -21 88 -7 48 -15 96 -18 107 -3 11 -2 17 2 13 4 -4 14 -40 22 -80z m513 67
c10 -12 10 -15 -4 -15 -9 0 -16 7 -16 15 0 8 2 15 4 15 2 0 9 -7 16 -15z m747
-7 c-3 -8 -6 -5 -6 6 -1 11 2 17 5 13 3 -3 4 -12 1 -19z m352 9 c11 -15 5 -27
-14 -27 -6 0 -11 9 -11 20 0 23 9 26 25 7z m-5293 -32 c12 -18 14 -37 9 -72
-8 -57 -21 -77 -57 -86 -23 -6 -29 -2 -51 37 -28 50 -28 110 -1 131 9 6 32 12
50 13 26 1 38 -5 50 -23z m2830 -11 c-27 -13 -51 -23 -53 -20 -7 6 68 45 87
45 8 0 -7 -11 -34 -25z m-6420 -11 c-10 -10 -19 5 -10 18 6 11 8 11 12 0 2 -7
1 -15 -2 -18z m300 -40 c-14 -36 -40 2 -30 43 l6 25 15 -27 c7 -15 11 -34 9
-41z m6789 41 c15 -14 25 -27 23 -29 -4 -4 -58 42 -58 50 0 9 7 5 35 -21z
m-7020 -14 c0 -20 -6 -26 -28 -28 -32 -4 -46 20 -26 44 19 24 54 14 54 -16z
m8713 23 c-15 -2 -42 -2 -60 0 -18 2 -6 4 27 4 33 0 48 -2 33 -4z m-905 -55
l-6 -51 49 6 c33 5 44 4 34 -3 -8 -5 -27 -10 -42 -10 -23 0 -28 -5 -34 -34 -3
-19 -4 -60 -2 -90 2 -39 -1 -56 -9 -56 -7 0 -15 -17 -18 -37 -11 -63 -15 -62
-11 2 3 33 10 61 16 63 6 2 10 46 10 114 l0 110 -27 -6 c-27 -6 -27 -6 -8 8
11 9 25 20 30 25 20 20 24 10 18 -41z m-1069 21 c-3 -5 -2 -9 3 -9 4 0 16 -14
26 -31 9 -17 23 -29 30 -26 6 2 21 1 32 -4 19 -7 19 -8 -1 -8 -13 -1 -24 -10
-29 -23 -6 -21 -7 -21 -16 10 -5 18 -14 30 -19 27 -6 -4 -10 0 -10 8 0 7 -11
24 -25 37 -30 28 -32 40 -5 33 11 -3 17 -9 14 -14z m76 7 c0 -10 -7 -12 -22
-8 -21 5 -21 6 -2 13 10 4 20 8 22 8 1 1 2 -5 2 -13z m142 -11 c14 -14 43 -29
64 -34 37 -9 38 -9 8 -10 -27 -1 -114 48 -114 64 0 12 19 3 42 -20z m-7034 4
c-2 -6 -8 -10 -13 -10 -5 0 -11 4 -13 10 -2 6 4 11 13 11 9 0 15 -5 13 -11z
m6077 -9 c3 -5 -3 -10 -14 -10 -12 0 -21 5 -21 10 0 6 6 10 14 10 8 0 18 -4
21 -10z m1381 -36 c-4 -14 -9 -24 -12 -21 -3 2 -2 17 2 31 3 15 9 25 11 22 3
-3 2 -17 -1 -32z m1474 32 c0 -11 -19 -15 -25 -6 -3 5 1 10 9 10 9 0 16 -2 16
-4z m-6975 -33 c51 -25 70 -43 45 -43 -5 0 -10 -8 -10 -18 0 -11 -9 -27 -20
-37 -20 -18 -21 -17 -55 21 -20 23 -32 46 -29 56 3 9 0 20 -7 23 -8 6 -7 10 2
16 18 11 10 13 74 -18z m4145 17 c-8 -5 -19 -10 -25 -10 -5 0 -3 5 5 10 8 5
20 10 25 10 6 0 3 -5 -5 -10z m880 -16 c0 -8 -4 -14 -8 -14 -4 0 -8 9 -8 19 0
11 4 17 8 15 4 -3 8 -12 8 -20z m-850 6 c0 -5 -5 -10 -11 -10 -5 0 -7 5 -4 10
3 6 8 10 11 10 2 0 4 -4 4 -10z m1017 -12 c-3 -8 -6 -5 -6 6 -1 11 2 17 5 13
3 -3 4 -12 1 -19z m-6900 -30 c-3 -10 1 -25 9 -32 21 -22 17 -36 -10 -36 -16
0 -27 7 -31 19 -3 12 -17 21 -32 23 -32 4 -44 28 -14 28 12 0 29 9 38 20 13
15 20 17 31 8 7 -6 11 -20 9 -30z m7826 35 c-7 -2 -19 -2 -25 0 -7 3 -2 5 12
5 14 0 19 -2 13 -5z m-837 -19 c36 -17 46 -52 21 -73 -16 -13 -27 -5 -27 19 0
18 -30 24 -30 6 -1 -6 -7 0 -14 13 -14 26 -11 51 6 51 6 0 25 -7 44 -16z
m-178 -34 c12 -5 22 -17 22 -25 0 -14 -2 -14 -15 -3 -28 26 -40 34 -57 41 -10
3 -18 12 -18 18 0 7 8 5 23 -5 12 -9 32 -21 45 -26z m92 8 c-1 -13 -1 -25 0
-28 11 -31 7 -48 -13 -55 -21 -6 -21 -7 7 -17 19 -7 24 -13 16 -18 -9 -6 -7
-11 10 -20 24 -13 43 -4 20 10 -11 7 -3 10 27 10 33 0 41 -3 37 -14 -3 -8 -11
-13 -17 -11 -17 6 -67 -41 -67 -62 0 -22 -55 -29 -79 -10 -8 6 -12 7 -9 2 4
-6 0 -19 -8 -30 -13 -18 -14 -18 -14 0 0 39 -11 5 -14 -44 -5 -65 -16 -80 -16
-22 l0 43 -37 -6 -38 -5 30 14 c17 8 36 14 43 15 6 0 12 9 12 19 0 10 7 21 15
25 9 3 16 19 16 38 l2 33 6 -35 c4 -21 9 -30 14 -23 4 6 16 10 27 8 17 -3 18
0 13 28 -3 18 -18 42 -32 54 -14 11 -23 25 -18 29 4 4 7 2 7 -5 0 -7 5 -9 10
-6 6 3 10 19 10 36 0 18 5 28 12 27 7 -2 14 7 16 20 2 12 6 22 8 22 3 0 5 -10
4 -22z m710 12 c0 -14 -83 -53 -159 -75 -44 -13 -65 -25 -69 -38 -3 -13 -11
-17 -26 -13 -11 3 -29 6 -38 6 -10 0 -18 5 -18 10 0 6 10 10 21 10 18 0 19 3
9 15 -9 11 -7 19 10 37 l21 23 -10 -27 c-8 -21 -7 -27 6 -32 21 -8 133 29 198
65 58 33 55 32 55 19z m-3366 -15 c3 -8 1 -15 -4 -15 -6 0 -10 7 -10 15 0 8 2
15 4 15 2 0 6 -7 10 -15z m2916 5 c0 -5 -5 -10 -11 -10 -5 0 -7 5 -4 10 3 6 8
10 11 10 2 0 4 -4 4 -10z m246 -5 c-11 -8 -25 -15 -30 -15 -6 0 -2 7 8 15 11
8 25 15 30 15 6 0 2 -7 -8 -15z m-1061 -10 c27 -12 28 -13 8 -14 -15 -1 -23
-7 -23 -18 0 -21 -7 -14 -12 12 -2 11 -14 23 -28 26 l-25 7 25 0 c14 1 39 -5
55 -13z m1790 -17 c24 -14 26 -18 10 -18 -11 1 -33 12 -50 26 -33 27 -12 23
40 -8z m498 25 c-7 -2 -19 -2 -25 0 -7 3 -2 5 12 5 14 0 19 -2 13 -5z m-4780
-55 c12 -7 -5 -70 -26 -97 -15 -18 -56 -35 -96 -39 -11 -2 -13 -17 -9 -72 5
-66 4 -70 -16 -71 -11 -1 -25 0 -31 1 -5 2 -35 10 -65 18 -30 8 -59 20 -65 27
-5 8 -23 15 -40 17 -27 3 -30 6 -29 38 3 70 7 74 65 82 29 3 57 4 61 2 12 -8
49 6 43 16 -3 5 5 14 17 21 13 7 29 20 36 31 17 24 65 48 96 48 14 0 28 6 33
13 5 8 9 6 11 -8 3 -11 9 -23 15 -27z m44 36 c-3 -3 -12 -4 -19 -1 -8 3 -5 6
6 6 11 1 17 -2 13 -5z m992 -31 c0 -21 -3 -32 -6 -25 -7 19 -32 -16 -33 -45 0
-13 -5 -23 -11 -23 -8 0 -10 12 -6 36 14 86 58 130 56 57z m1734 4 c9 -3 17
-14 17 -23 0 -15 -4 -14 -25 6 -14 13 -25 28 -25 34 0 8 2 8 8 0 4 -6 15 -13
25 -17z m2227 -17 c8 -5 11 -10 5 -10 -5 0 -17 5 -25 10 -8 5 -10 10 -5 10 6
0 17 -5 25 -10z m-647 -35 c-3 -9 -8 -14 -10 -11 -3 3 -2 9 2 15 9 16 15 13 8
-4z m-8805 -32 c9 2 29 -3 45 -10 31 -16 37 -55 12 -90 -20 -28 -37 -21 -69
27 -20 31 -24 45 -18 77 5 28 7 32 10 15 2 -16 9 -22 20 -19z m7852 33 c0 -2
-11 -6 -25 -8 -13 -3 -22 -1 -19 3 5 9 44 13 44 5z m-1319 -44 c-6 -2 -11 -8
-11 -14 0 -15 -69 -98 -81 -98 -5 0 2 17 16 37 14 21 25 45 25 55 0 9 9 19 19
23 11 3 23 13 27 23 6 15 8 15 12 -3 2 -10 -1 -21 -7 -23z m96 -14 c-2 -13 -4
-5 -4 17 -1 22 1 32 4 23 2 -10 2 -28 0 -40z m-698 20 c-21 -40 -72 -98 -80
-92 -12 7 6 39 44 81 35 38 53 44 36 11z m-5106 -33 c4 -8 3 -15 -1 -15 -9 1
-62 47 -62 55 0 11 58 -25 63 -40z m7014 39 c-3 -3 -12 -4 -19 -1 -8 3 -5 6 6
6 11 1 17 -2 13 -5z m598 -3 c3 -5 1 -12 -5 -16 -5 -3 -10 1 -10 9 0 18 6 21
15 7z m-6449 -43 c-4 -22 -11 -48 -17 -57 -7 -12 -8 -5 -4 24 8 51 15 75 22
75 3 0 3 -19 -1 -42z m4448 13 c-10 -17 -22 -27 -27 -24 -4 3 2 16 14 29 30
32 34 30 13 -5z m3083 3 c-3 -3 -12 -4 -19 -1 -8 3 -5 6 6 6 11 1 17 -2 13 -5z
m-1097 -24 c0 -5 -7 -7 -15 -4 -8 4 -15 8 -15 10 0 2 7 4 15 4 8 0 15 -4 15
-10z m204 -93 c5 -10 3 -23 -4 -33 -17 -20 -36 -2 -22 21 5 11 6 32 1 54 -13
55 -8 72 5 21 7 -25 16 -53 20 -63z m-6205 64 c11 -20 5 -31 -15 -31 -6 0 -14
11 -16 25 -6 30 16 34 31 6z m3750 -16 c7 4 11 -4 11 -20 0 -23 29 -78 50 -95
4 -3 10 -13 13 -23 5 -14 2 -20 -13 -24 -11 -3 -20 -10 -20 -15 0 -5 -4 -7 -9
-4 -5 3 -19 -2 -32 -12 -33 -25 -91 -53 -98 -47 -2 3 4 12 15 19 48 35 83 73
74 82 -5 5 -13 27 -18 49 -5 22 -11 45 -12 50 -1 6 -2 24 -1 40 2 28 3 29 16
11 7 -10 18 -15 24 -11z m2858 19 c-3 -3 -12 -4 -19 -1 -8 3 -5 6 6 6 11 1 17
-2 13 -5z m-2657 -9 c0 -2 -11 -15 -25 -29 l-25 -26 26 -6 c17 -4 22 -9 14
-14 -9 -6 -9 -9 0 -15 8 -5 18 -1 27 10 11 16 13 16 13 3 0 -29 -17 -62 -45
-91 -16 -15 -33 -37 -40 -50 -6 -12 -24 -45 -38 -72 -15 -28 -40 -66 -57 -85
l-30 -35 25 50 c14 28 30 57 34 65 5 8 17 32 25 52 9 20 21 40 27 43 6 5 6 12
-2 22 -10 12 -10 16 1 23 11 7 8 11 -12 21 -23 10 -25 13 -12 26 8 8 11 20 7
26 -4 6 -1 8 9 5 8 -4 21 -2 29 2 11 7 10 10 -4 16 -16 6 -14 10 14 35 33 29
39 33 39 24z m-2487 -26 c8 -31 -2 -49 -29 -49 -18 0 -24 5 -24 23 0 43 43 64
53 26z m-2733 -22 c0 -5 -4 -5 -10 -2 -5 3 -10 14 -10 23 0 15 2 15 10 2 5 -8
10 -19 10 -23z m5730 23 c0 -5 -5 -10 -11 -10 -5 0 -7 5 -4 10 3 6 8 10 11 10
2 0 4 -4 4 -10z m1800 -30 c0 -11 -7 -20 -15 -20 -9 0 -12 6 -8 17 5 12 3 14
-7 8 -9 -5 -11 -4 -6 3 12 19 36 14 36 -8z m-493 -22 c-3 -7 -5 -2 -5 12 0 14
2 19 5 13 2 -7 2 -19 0 -25z m-6718 -14 c41 -53 18 -92 -46 -77 -49 11 -56 42
-17 78 34 31 38 31 63 -1z m2331 15 c0 -4 18 -9 40 -13 24 -4 40 -12 40 -20 0
-8 7 -17 16 -20 14 -5 15 -15 9 -54 -4 -26 -8 -57 -7 -69 0 -13 -8 -25 -20
-29 -15 -5 -37 -37 -42 -64 -3 -15 -19 -30 -27 -25 -5 4 -9 1 -9 -4 0 -6 -7
-11 -15 -11 -8 0 -15 7 -15 15 0 18 -21 20 -39 3 -11 -11 -13 -10 -9 3 9 23
-50 12 -63 -12 -15 -28 -67 -26 -78 4 -5 12 -5 26 0 32 5 5 9 22 9 37 0 23 -4
28 -25 28 -26 0 -35 23 -14 36 6 3 9 15 6 25 -3 11 -1 19 3 19 4 0 6 8 3 19
-3 10 0 22 7 26 8 5 8 10 -1 21 -9 11 -8 14 3 14 8 0 25 11 37 24 21 22 30 24
107 23 46 -1 84 -5 84 -8z m875 -1 c24 -11 35 -38 15 -38 -5 0 -10 4 -10 9 0
5 -10 11 -22 13 -12 2 -23 9 -26 16 -5 15 10 15 43 0z m-3500 -41 c13 -65 84
-109 115 -72 19 23 34 18 48 -15 8 -16 20 -30 28 -30 20 0 17 -27 -3 -39 -16
-9 -17 -10 -1 -11 9 0 19 -8 21 -17 21 -77 18 -84 -37 -89 -33 -2 -140 61
-186 110 -24 27 -24 27 -6 61 13 23 16 42 11 62 -12 49 -14 84 -5 78 5 -3 12
-20 15 -38z m771 -38 c-8 -35 -14 -54 -15 -41 -1 26 20 115 25 109 2 -2 -2
-33 -10 -68z m5160 49 c9 -9 11 -23 5 -50 -6 -25 -5 -38 1 -38 7 0 6 -5 -1
-13 -8 -10 -7 -17 1 -25 6 -6 9 -15 5 -18 -9 -9 -104 53 -111 72 -8 22 -7 79
2 88 11 11 83 0 98 -16z m-7393 -2 c22 -17 22 -44 0 -68 -17 -19 -48 -24 -58
-8 -9 15 14 90 28 90 7 0 20 -7 30 -14z m5051 -11 c-7 -17 -20 -20 -29 -6 -3
5 3 12 12 14 10 3 19 5 20 6 1 0 0 -6 -3 -14z m3826 11 c0 -2 -7 -7 -16 -10
-8 -3 -12 -2 -9 4 6 10 25 14 25 6z m-6800 -33 c25 -26 50 -89 56 -142 l7 -61
-32 0 c-20 0 -31 5 -31 14 0 8 -15 24 -33 35 -51 31 -77 102 -58 153 9 24 13
25 47 18 20 -5 40 -12 44 -17z m7430 8 c0 -17 -18 -31 -41 -31 -16 0 -10 29 9
39 25 15 32 13 32 -8z m-9013 -79 c18 -24 17 -72 -2 -72 -10 0 -15 -10 -15
-29 0 -38 -16 -43 -63 -19 -29 14 -49 18 -78 13 -37 -6 -39 -5 -39 19 0 14 8
34 18 44 10 10 18 34 19 60 2 77 5 78 80 37 37 -20 73 -44 80 -53z m7170 56
c-3 -8 -6 -5 -6 6 -1 11 2 17 5 13 3 -3 4 -12 1 -19z m-2852 -11 c11 -2 30 -9
42 -15 12 -7 43 -12 70 -12 62 0 79 -10 54 -32 -18 -15 -21 -15 -40 1 -12 10
-42 21 -69 24 -26 3 -70 15 -97 26 -52 22 -48 23 40 8z m3642 -34 c-3 -10 -5
-4 -5 12 0 17 2 24 5 18 2 -7 2 -21 0 -30z m-816 -4 c-5 -13 -10 -19 -10 -12
-1 15 10 45 15 40 3 -2 0 -15 -5 -28z m19 -54 c-10 -55 -10 -67 3 -86 13 -18
14 -25 2 -43 -7 -11 -16 -45 -20 -74 -6 -45 -5 -51 9 -46 9 3 16 12 16 20 0
20 24 17 51 -7 24 -20 18 -21 -26 -3 -11 5 -9 -3 7 -28 13 -20 36 -40 52 -46
16 -7 27 -14 24 -18 -4 -3 -16 -1 -27 5 -16 9 -26 8 -47 -5 -24 -16 -26 -16
-47 4 -17 17 -19 24 -9 34 19 19 15 23 -28 23 -39 1 -40 0 -40 -35 0 -35 -39
-103 -40 -68 0 9 5 18 12 20 13 5 28 112 18 129 -4 6 -27 8 -58 4 l-52 -6 32
51 c35 57 47 62 49 23 2 -24 2 -25 6 -5 2 12 9 20 14 17 5 -4 9 -1 9 5 0 6 11
21 25 33 17 15 32 48 47 104 26 94 36 93 18 -2z m-1950 60 c0 -8 -2 -15 -4
-15 -2 0 -6 7 -10 15 -3 8 -1 15 4 15 6 0 10 -7 10 -15z m2142 -7 c-4 -16 -2
-19 8 -13 10 6 11 1 6 -21 -4 -16 -8 -29 -9 -29 -1 0 -12 -6 -24 -12 -30 -17
-33 -16 -33 5 0 15 45 92 54 92 2 0 2 -10 -2 -22z m-870 -62 c-10 -20 -11 -20
-11 4 -1 14 -4 36 -7 50 -5 24 -4 24 11 -4 13 -21 14 -34 7 -50z m147 45 c26
-36 28 -89 4 -98 -9 -4 -29 1 -45 10 -17 9 -36 17 -44 17 -15 0 -12 24 7 78
12 32 53 29 78 -7z m408 7 c-3 -8 -6 -5 -6 6 -1 11 2 17 5 13 3 -3 4 -12 1
-19z m203 -10 c0 -16 -3 -19 -11 -11 -6 6 -8 16 -5 22 11 17 16 13 16 -11z
m-6594 -43 c-7 -18 -36 -20 -36 -2 0 6 3 22 6 35 l7 23 14 -21 c8 -12 12 -27
9 -35z m224 35 c0 -5 -2 -10 -4 -10 -3 0 -8 5 -11 10 -3 6 -1 10 4 10 6 0 11
-4 11 -10z m6250 -33 c0 -24 -3 -28 -10 -17 -13 20 -13 63 0 55 6 -3 10 -21
10 -38z m1205 18 c30 -29 31 -49 5 -75 -25 -25 -41 -25 -73 0 -23 18 -25 24
-16 48 22 58 46 66 84 27z m-8961 4 c31 -14 50 -63 35 -90 -5 -11 -7 -24 -4
-29 12 -19 -5 -31 -28 -19 -15 9 -22 9 -25 1 -2 -7 -15 -9 -33 -5 -31 6 -69
-18 -69 -43 0 -16 -37 -37 -50 -29 -14 8 -13 38 2 53 6 6 23 35 37 64 17 34
40 63 66 80 48 33 39 30 69 17z m7694 -64 c1 -25 -1 -27 -8 -10 -5 11 -8 36
-8 55 0 32 1 33 8 10 4 -14 8 -38 8 -55z m156 53 c-8 -25 -34 -55 -34 -39 0
18 23 61 32 61 5 0 6 -10 2 -22z m-5453 -32 c38 -7 56 -36 43 -69 -8 -22 -45
-28 -70 -12 -12 7 -31 11 -42 8 -16 -4 -24 1 -34 21 -11 24 -9 30 18 55 21 20
32 24 39 16 6 -7 26 -15 46 -19z m6873 18 c12 -31 6 -68 -15 -91 -18 -18 -23
-38 -26 -100 -6 -88 -16 -123 -38 -123 -8 0 -24 -6 -36 -12 -18 -12 -24 -9
-50 20 -17 19 -29 43 -29 60 0 42 34 89 69 97 21 4 31 13 31 25 0 10 4 21 9
24 5 3 12 18 15 33 13 55 29 83 46 83 10 0 21 -7 24 -16z m-1361 -19 c-3 -9
-8 -14 -10 -11 -3 3 -2 9 2 15 9 16 15 13 8 -4z m-1287 -40 c-4 -14 -11 -25
-16 -25 -5 0 -5 13 2 31 12 35 23 31 14 -6z m454 25 c0 -5 -5 -10 -11 -10 -5
0 -7 5 -4 10 3 6 8 10 11 10 2 0 4 -4 4 -10z m657 -12 c-3 -8 -6 -5 -6 6 -1
11 2 17 5 13 3 -3 4 -12 1 -19z m-1327 8 c0 -3 -4 -8 -10 -11 -5 -3 -10 -1
-10 4 0 6 5 11 10 11 6 0 10 -2 10 -4z m2163 -47 c-10 -19 -19 -36 -20 -38 -2
-2 -6 -2 -9 2 -4 3 4 22 16 42 28 45 37 40 13 -6z m-6906 -10 c-17 -10 -17
-12 -3 -28 12 -13 15 -29 10 -64 -7 -51 -7 -51 -33 -38 -14 8 -17 21 -15 61 2
54 16 80 43 80 14 -1 13 -2 -2 -11z m198 -44 c9 -29 15 -40 32 -64 17 -24 17
-24 -3 -13 -11 6 -35 25 -52 43 -23 24 -29 35 -20 41 20 12 38 9 43 -7z m6686
-103 c-5 -41 -18 -86 -30 -105 -23 -38 -27 -52 -10 -41 6 3 4 -4 -4 -17 -31
-47 -35 -161 -5 -131 19 19 28 14 39 -18 6 -16 15 -30 20 -30 5 0 9 -15 9 -34
0 -21 8 -42 23 -57 25 -26 44 -71 45 -106 1 -17 -4 -21 -26 -18 -15 2 -35 -4
-44 -13 -16 -14 -20 -14 -37 2 -11 10 -29 44 -41 76 -27 73 -53 102 -88 99
-15 -2 -38 3 -52 10 -17 10 -25 11 -28 3 -2 -6 -17 5 -35 24 -29 34 -33 36
-81 31 -28 -3 -42 -3 -31 0 37 10 102 42 114 57 8 9 17 14 21 11 4 -3 20 11
34 30 23 29 30 33 46 25 17 -9 20 -6 26 27 6 34 8 35 16 14 4 -12 6 -27 3 -31
-8 -12 5 -40 19 -40 6 0 21 31 34 68 13 37 29 85 37 107 8 22 17 62 20 88 4
27 8 47 11 45 2 -3 0 -37 -5 -76z m-5416 58 c3 -5 14 -10 24 -10 10 0 29 -8
42 -19 13 -10 28 -18 34 -17 5 0 11 -7 13 -16 2 -12 -3 -18 -15 -18 -16 -1
-16 -2 -2 -13 19 -14 38 -63 20 -53 -6 4 -11 1 -11 -6 0 -9 -3 -9 -10 2 -8 12
-10 10 -10 -8 0 -14 -16 -41 -37 -63 -37 -39 -38 -39 -47 -17 -9 22 -9 22 -16
-7 l-7 -30 -10 35 c-9 33 -12 35 -51 33 -36 -1 -42 1 -42 18 0 10 5 19 10 19
6 0 10 7 10 15 0 8 9 20 20 27 13 9 20 24 20 46 0 22 6 35 18 39 26 10 43 36
29 45 -9 6 -9 8 0 8 6 0 15 -4 18 -10z m5325 0 c0 -5 -4 -10 -10 -10 -5 0 -10
5 -10 10 0 6 5 10 10 10 6 0 10 -4 10 -10z m-6715 -56 c13 -21 15 -31 6 -50
-22 -48 -51 -24 -51 42 0 42 20 45 45 8z m3879 20 c18 -7 22 -34 5 -34 -5 0
-7 5 -4 10 3 6 -1 10 -9 10 -9 0 -16 5 -16 10 0 12 3 12 24 4z m1465 -64 c0
-19 -4 -44 -9 -55 -6 -14 -9 4 -9 55 0 51 3 69 9 55 5 -11 9 -36 9 -55z
m-1139 50 c17 -11 10 -13 -40 -10 -19 1 -39 6 -44 11 -13 12 65 12 84 -1z
m1631 -22 c-5 -13 -14 -23 -22 -24 -15 0 -32 -6 -96 -35 -66 -29 -64 -23 7 21
36 22 70 38 77 36 6 -3 17 2 23 10 17 20 21 18 11 -8z m-3804 -30 c21 -23 19
-79 -3 -95 -22 -16 -76 -17 -92 -1 -23 23 -14 75 15 96 33 24 58 24 80 0z
m2037 7 c-4 -8 -11 -12 -16 -9 -6 4 -5 10 3 15 19 12 19 11 13 -6z m2536 5 c0
-5 -7 -10 -15 -10 -8 0 -15 5 -15 10 0 6 7 10 15 10 8 0 15 -4 15 -10z m-8352
-32 c16 -16 15 -43 -2 -57 -25 -21 -63 39 -39 62 10 11 28 8 41 -5z m8366
-105 c5 -12 4 -14 -2 -8 -14 14 -32 107 -24 120 4 5 10 -14 13 -42 4 -29 10
-61 13 -70z m-2404 98 c0 -5 -7 -12 -16 -15 -24 -9 -28 -7 -14 9 14 17 30 20
30 6z m-4799 -59 c18 2 24 -2 25 -17 1 -29 -14 -55 -31 -55 -9 0 -15 -10 -15
-26 0 -20 4 -24 18 -20 32 10 57 -18 57 -64 0 -24 -6 -45 -14 -49 -8 -5 -11
-16 -7 -26 5 -14 2 -16 -18 -11 -14 3 -28 1 -31 -4 -4 -6 -10 -8 -15 -5 -5 3
-11 -8 -15 -24 -3 -15 -15 -38 -27 -51 -17 -19 -19 -26 -10 -41 17 -26 -10
-26 -53 1 -40 25 -102 20 -144 -11 -21 -15 -37 -20 -55 -15 -28 7 -37 39 -10
34 10 -2 24 11 35 32 17 30 50 59 72 60 4 0 15 -13 25 -30 l19 -30 19 38 c20
36 22 37 72 36 29 0 52 3 52 8 0 5 -5 6 -11 2 -9 -5 -10 1 -4 22 12 49 9 91
-10 134 -16 35 -17 45 -6 62 10 16 10 22 1 28 -8 5 -9 20 -4 46 l7 38 27 -32
c19 -23 34 -32 51 -30z m2797 36 c-5 -16 -48 -24 -48 -10 0 11 17 20 38 21 8
1 12 -5 10 -11z m4222 -60 c0 -37 -1 -38 -27 -32 l-27 7 27 -28 c14 -16 24
-31 22 -33 -8 -8 -64 43 -60 55 2 6 -6 14 -18 18 -19 6 -20 8 -4 12 9 2 17 13
17 23 0 10 7 26 16 35 15 15 18 15 35 -1 12 -11 19 -31 19 -56z m-638 -20
c-31 -65 -82 -140 -82 -122 0 6 23 48 50 93 28 45 50 87 50 93 0 6 3 8 6 5 4
-4 -7 -35 -24 -69z m895 50 c-3 -8 -6 -5 -6 6 -1 11 2 17 5 13 3 -3 4 -12 1
-19z m-6689 -12 c2 -9 -2 -24 -9 -32 -17 -21 -33 -2 -25 31 7 28 29 29 34 1z
m5319 -38 c-3 -7 -5 -2 -5 12 0 14 2 19 5 13 2 -7 2 -19 0 -25z m654 5 c-8
-15 -10 -15 -11 -2 0 17 10 32 18 25 2 -3 -1 -13 -7 -23z m-69 -13 c-9 -16
-20 -30 -24 -30 -12 0 -10 8 8 35 23 35 36 31 16 -5z m-2225 -37 c-4 -17 -4
-17 -12 0 -4 9 -4 25 0 35 8 16 8 16 12 0 3 -10 3 -26 0 -35z m-1498 23 c25
-30 -26 -94 -64 -80 -28 11 -38 54 -19 75 20 22 67 25 83 5z m-244 -6 c4 -6
-7 -24 -24 -40 -36 -36 -47 -26 -21 18 20 33 34 40 45 22z m3372 -32 c-3 -7
-5 -2 -5 12 0 14 2 19 5 13 2 -7 2 -19 0 -25z m-5743 -5 c-3 -16 -7 -34 -10
-40 -4 -15 -44 -18 -44 -3 0 6 4 10 8 10 4 0 13 14 19 30 14 38 36 40 27 3z
m6275 -47 c-19 -31 -37 -56 -41 -56 -5 0 -8 -8 -9 -17 0 -10 -3 -13 -5 -6 -6
14 19 65 54 111 38 50 38 30 1 -32z m659 29 c-3 -3 -9 2 -12 12 -6 14 -5 15 5
6 7 -7 10 -15 7 -18z m-6088 5 c0 -5 -7 -10 -15 -10 -8 0 -15 5 -15 10 0 6 7
10 15 10 8 0 15 -4 15 -10z m4910 -82 c0 -15 -11 -51 -25 -80 -15 -30 -21 -56
-16 -61 5 -5 65 -7 135 -5 80 2 126 -1 126 -7 0 -6 -60 -10 -159 -10 -88 0
-162 -3 -166 -7 -4 -4 0 -28 9 -54 9 -26 14 -50 11 -53 -3 -3 -8 5 -12 17 -4
18 -8 20 -19 11 -11 -9 -14 -8 -14 4 0 8 6 18 13 21 6 4 -3 4 -20 1 -31 -4
-38 2 -34 28 0 4 -3 7 -7 7 -17 0 -20 -13 -10 -35 8 -19 7 -32 -6 -59 -20 -42
-25 -43 -49 -11 -17 23 -17 25 0 45 10 11 23 20 30 20 7 0 13 5 13 11 0 8 -12
10 -33 6 -37 -6 -87 1 -87 13 0 4 23 11 52 14 61 8 75 15 57 27 -10 6 -10 9
-2 9 6 0 15 -4 18 -10 8 -13 42 -13 50 0 3 6 -1 17 -9 26 -19 18 -19 24 -5 44
9 13 10 12 5 -2 -3 -10 -2 -18 2 -18 8 0 27 43 37 84 3 16 20 43 37 61 l32 31
23 -20 c14 -12 23 -31 23 -48z m-4696 47 c-5 -11 -2 -13 9 -9 10 3 21 -2 29
-15 7 -12 22 -21 33 -21 31 0 46 -19 34 -42 -6 -12 -21 -18 -43 -18 -44 0 -54
-24 -26 -63 l22 -28 -49 7 c-67 9 -86 21 -79 47 3 12 6 28 6 35 0 6 9 12 20
12 20 0 38 40 25 59 -3 6 -1 20 5 31 13 23 22 27 14 5z m-2034 -20 c0 -9 -9
-15 -25 -15 -18 0 -23 4 -19 15 4 8 15 15 25 15 10 0 19 -7 19 -15z m3304 -7
c8 -32 7 -38 -4 -38 -13 0 -32 38 -25 50 10 17 22 11 29 -12z m2910 6 c3 -8 2
-12 -4 -9 -6 3 -10 10 -10 16 0 14 7 11 14 -7z m1296 -8 c0 -2 -7 -7 -16 -10
-8 -3 -12 -2 -9 4 6 10 25 14 25 6z m-5719 -20 c6 18 7 18 14 2 4 -10 5 -24 2
-32 -4 -11 3 -13 33 -9 32 4 40 2 49 -16 7 -11 8 -21 4 -22 -4 0 0 -4 11 -8
17 -7 17 -8 2 -23 -9 -9 -16 -21 -16 -26 0 -5 -12 -17 -26 -27 -14 -9 -23 -22
-20 -30 6 -18 -37 -25 -52 -9 -7 7 -12 18 -12 24 0 17 -30 11 -37 -7 -7 -18
-63 -72 -76 -73 -5 0 -15 -7 -23 -15 -9 -8 -20 -15 -27 -15 -6 0 2 10 19 23
51 39 84 76 72 83 -7 5 -5 12 7 20 10 7 15 19 12 27 -3 8 3 29 14 46 15 25 18
42 13 69 -7 35 -7 36 11 18 18 -18 19 -18 26 0z m1464 4 c-4 -6 -2 -17 5 -24
15 -19 3 -59 -22 -75 -17 -11 -23 -10 -36 3 -23 22 -1 93 31 99 12 2 23 5 25
6 2 0 0 -4 -3 -9z m3829 -49 c-9 -22 -20 -41 -25 -41 -13 0 -11 7 13 50 28 49
34 45 12 -9z m286 13 c0 -16 23 -18 50 -4 19 10 19 9 2 -20 -9 -16 -20 -30
-24 -30 -5 0 -8 -5 -8 -10 0 -14 -51 -65 -71 -73 -23 -8 -12 32 15 56 12 10
17 16 11 14 -5 -2 -19 -1 -30 4 -18 7 -17 8 7 8 33 1 41 12 29 44 -10 26 -5
41 10 31 5 -3 9 -12 9 -20z m-6909 -43 c-22 -40 -49 -15 -37 34 6 25 7 25 27
6 17 -16 19 -23 10 -40z m7237 42 c-10 -2 -26 -2 -35 0 -10 3 -2 5 17 5 19 0
27 -2 18 -5z m-508 -25 c0 -6 -7 -19 -14 -27 -10 -11 -12 -21 -6 -31 7 -12 13
-11 33 8 13 12 32 22 43 22 19 -1 19 -1 -1 -16 -11 -9 -34 -22 -52 -30 -17 -7
-33 -19 -36 -26 -4 -8 -6 -7 -6 4 -1 9 4 19 9 21 6 3 5 4 -2 3 -7 -1 -14 -13
-16 -25 -2 -15 -9 -21 -18 -17 -10 4 -20 -7 -32 -32 -9 -20 -27 -45 -39 -55
-13 -10 -23 -26 -23 -35 0 -9 -5 -24 -10 -32 -12 -19 -2 46 12 73 6 12 5 17
-4 17 -9 0 -10 3 -2 8 6 4 16 21 22 37 6 17 11 24 11 18 1 -7 5 -13 10 -13 5
0 8 8 7 18 -1 12 5 16 22 14 16 -2 22 2 22 16 0 10 11 32 25 48 14 16 25 32
25 37 0 4 5 7 10 7 6 0 10 -5 10 -12z m-3802 -37 c26 -23 27 -29 5 -53 -23
-26 -52 -22 -79 10 -37 43 -31 62 20 62 17 -1 41 -9 54 -19z m2702 -1 c0 -5
-4 -10 -10 -10 -5 0 -10 5 -10 10 0 6 5 10 10 10 6 0 10 -4 10 -10z m280 -10
c0 -12 -24 -12 -60 0 -21 7 -19 8 18 9 23 1 42 -3 42 -9z m690 -11 c0 -18 -2
-19 -15 -9 -13 11 -15 8 -15 -16 0 -16 -7 -42 -15 -58 -8 -15 -12 -32 -9 -37
3 -5 0 -9 -6 -9 -6 0 -8 -4 -5 -10 3 -5 1 -10 -5 -10 -7 0 -8 -6 -2 -16 5 -9
7 -24 5 -33 -2 -9 7 -27 21 -40 19 -18 26 -21 26 -9 0 8 11 20 25 26 14 6 25
8 25 3 0 -5 -3 -11 -7 -13 -14 -6 -54 -88 -48 -98 3 -6 1 -10 -5 -10 -6 0 -8
-4 -5 -10 3 -6 -1 -7 -10 -3 -13 5 -14 7 -3 14 10 7 9 9 -4 9 -9 0 -20 -5 -23
-10 -4 -6 -10 -8 -15 -5 -14 9 -33 -33 -56 -125 -14 -54 -18 -89 -12 -97 5 -6
5 -12 0 -15 -14 -5 -55 -98 -62 -138 -5 -38 -39 -57 -41 -23 -1 16 -2 17 -6 1
-4 -16 -28 -23 -50 -15 -5 1 -8 12 -8 24 0 14 -15 33 -40 52 -45 35 -55 37
-55 16 0 -8 -7 -15 -16 -15 -9 0 -29 -9 -45 -21 -29 -20 -40 -14 -17 9 16 16
-4 16 -22 0 -12 -11 -12 -10 0 5 7 10 19 16 26 13 14 -6 74 24 74 36 0 4 7 5
16 1 14 -5 15 0 9 35 -4 24 -2 49 5 61 15 29 28 26 22 -6 -4 -22 -2 -25 12
-20 10 4 33 7 52 7 34 0 34 0 34 46 0 27 4 43 10 39 6 -3 10 -16 10 -28 1 -20
2 -20 13 -5 12 15 14 15 24 -1 6 -10 9 -31 7 -47 -2 -16 -1 -21 2 -11 3 9 11
17 17 17 7 0 20 36 30 83 11 45 25 99 33 119 10 28 11 38 1 42 -12 5 -5 12 40
44 10 7 12 10 6 7 -9 -4 -13 5 -13 35 0 27 -5 43 -15 46 -8 4 -15 16 -14 28 0
24 47 128 48 107 1 -11 4 -11 16 -1 20 16 19 30 -2 30 -22 0 -11 10 17 15 12
2 25 7 28 10 9 9 12 6 12 -16z m-6087 -17 c17 -15 17 -16 -3 -24 -11 -4 -33
-5 -49 -2 -23 5 -27 10 -23 30 4 20 8 23 31 18 14 -4 34 -14 44 -22z m5482 1
l30 -7 -35 -7 c-19 -3 -44 -9 -55 -13 -13 -5 -11 -2 5 8 19 12 21 15 8 16 -10
0 -18 5 -18 11 0 6 8 8 18 5 9 -3 31 -8 47 -13z m-5664 -20 c-8 -15 -10 -15
-11 -2 0 17 10 32 18 25 2 -3 -1 -13 -7 -23z m5332 2 c15 -22 16 -25 2 -25 -8
0 -15 7 -15 15 0 8 -4 15 -10 15 -5 0 -10 5 -10 10 0 17 14 10 33 -15z m-3960
-2 c-7 -2 -19 -2 -25 0 -7 3 -2 5 12 5 14 0 19 -2 13 -5z m62 -13 c3 -5 24
-10 46 -10 42 0 46 -4 25 -26 -19 -18 -40 -18 -56 1 -7 8 -21 15 -31 15 -22 0
-34 16 -17 23 20 8 26 8 33 -3z m-2300 -40 c8 -16 15 -37 15 -47 0 -11 13 -30
30 -43 17 -15 29 -35 30 -50 0 -14 4 -20 8 -15 11 15 32 17 32 2 0 -7 -5 -18
-12 -25 -9 -9 -9 -12 3 -13 7 0 3 -4 -9 -10 -13 -5 -28 -6 -33 -3 -6 3 -16 0
-24 -6 -8 -6 -19 -9 -25 -5 -20 12 -46 -31 -45 -74 0 -32 -3 -41 -17 -41 -12
0 -18 -10 -21 -37 -2 -21 -4 11 -3 70 1 85 -2 110 -14 117 -8 5 -17 5 -20 1
-3 -4 -13 -10 -22 -14 -11 -4 -19 -22 -23 -51 -4 -25 -13 -51 -21 -57 -17 -14
-17 -5 -1 71 15 68 22 80 51 80 30 0 46 18 46 52 0 15 4 28 9 28 4 0 8 17 8
39 0 67 31 84 58 31z m6765 20 c0 -5 -4 -10 -10 -10 -5 0 -10 5 -10 10 0 6 5
10 10 10 6 0 10 -4 10 -10z m-5295 -42 c6 -22 4 -28 -9 -28 -12 0 -16 10 -16
37 0 41 14 36 25 -9z m-599 5 c-7 -7 -26 7 -26 19 0 6 6 6 15 -2 9 -7 13 -15
11 -17z m5557 20 c-13 -2 -33 -2 -45 0 -13 2 -3 4 22 4 25 0 35 -2 23 -4z
m-5968 -43 c-32 -21 -88 -29 -68 -9 10 10 58 25 88 28 6 0 -3 -8 -20 -19z
m449 -12 c9 -12 16 -19 16 -14 0 5 8 0 18 -11 9 -11 25 -22 34 -26 22 -8 48
-59 52 -102 1 -19 12 -45 24 -58 23 -24 30 -57 12 -57 -6 0 -16 12 -23 28 -16
36 -39 62 -54 62 -8 0 -13 13 -13 33 0 45 -26 95 -69 134 -20 18 -31 32 -24
33 6 0 19 -10 27 -22z m4159 -3 c4 -8 2 -17 -3 -20 -6 -4 -10 3 -10 14 0 25 6
27 13 6z m-3054 -35 c0 -10 -3 -8 -9 5 -12 27 -12 43 0 25 5 -8 9 -22 9 -30z
m261 20 c0 -5 -4 -10 -10 -10 -5 0 -10 5 -10 10 0 6 5 10 10 10 6 0 10 -4 10
-10z m45 0 c3 -5 1 -10 -4 -10 -6 0 -11 5 -11 10 0 6 2 10 4 10 3 0 8 -4 11
-10z m4212 -6 c-3 -3 -12 -4 -19 -1 -8 3 -5 6 6 6 11 1 17 -2 13 -5z m-67 -14
c-8 -5 -22 -10 -30 -10 -13 0 -13 1 0 10 8 5 22 10 30 10 13 0 13 -1 0 -10z
m313 -97 c17 -60 10 -69 -16 -20 -24 46 -48 119 -37 112 6 -3 10 0 10 7 1 20
27 -41 43 -99z m-5111 77 c-12 -12 -22 -26 -22 -32 0 -6 -3 -8 -6 -5 -9 9 24
57 38 57 7 0 2 -9 -10 -20z m5171 13 c-7 -2 -19 -2 -25 0 -7 3 -2 5 12 5 14 0
19 -2 13 -5z m-4148 -34 c-7 -10 -42 0 -55 16 -9 11 -5 12 24 3 19 -6 33 -14
31 -19z m1435 21 c0 -5 -4 -10 -10 -10 -5 0 -10 5 -10 10 0 6 5 10 10 10 6 0
10 -4 10 -10z m2088 -32 c-5 -15 -23 -11 -26 6 -2 11 2 14 13 10 9 -4 14 -11
13 -16z m-4022 -26 c-8 -16 -22 -32 -30 -35 -8 -3 -16 -16 -18 -29 -2 -14 -15
-29 -34 -38 -43 -21 -64 -44 -54 -60 4 -7 3 -31 -4 -54 -12 -39 -14 -41 -53
-41 -31 0 -45 -6 -60 -23 -25 -31 -81 -35 -97 -7 -6 11 -12 22 -14 25 -1 2
-19 3 -40 3 l-37 -2 37 16 c21 9 40 25 44 37 6 18 8 19 13 4 5 -15 10 -16 31
-5 30 15 37 48 15 67 -21 18 -19 29 6 23 25 -7 38 10 40 52 0 26 2 24 12 -15
15 -58 48 -67 72 -21 8 17 19 30 23 30 20 -3 30 3 35 21 4 15 14 20 36 20 17
0 31 5 31 10 0 6 -4 10 -10 10 -5 0 -10 5 -10 12 0 9 3 9 12 0 16 -16 28 -15
28 3 0 13 31 38 38 30 2 -2 -3 -17 -12 -33z m4785 -5 c-13 -13 -15 1 -4 30 7
17 8 17 11 -1 2 -10 -1 -23 -7 -29z m55 16 c-10 -10 -19 5 -10 18 6 11 8 11
12 0 2 -7 1 -15 -2 -18z m-5582 11 c21 -8 20 -24 -1 -24 -14 -1 -12 -4 6 -14
23 -13 23 -14 5 -18 -15 -4 -11 -7 16 -15 l35 -11 -31 -1 c-16 -1 -39 -8 -50
-16 -29 -22 -57 -19 -51 4 4 18 -18 43 -66 73 -18 11 -4 18 22 11 17 -4 19 -8
9 -14 -8 -6 -1 -9 22 -9 24 0 39 6 48 20 14 22 14 22 36 14z m4808 -32 c-20
-6 -13 -25 7 -19 17 4 18 2 9 -19 -14 -30 -36 -31 -40 -1 -4 26 24 77 31 56 2
-7 -1 -15 -7 -17z m-5582 -3 c0 -6 -4 -7 -10 -4 -5 3 -10 11 -10 16 0 6 5 7
10 4 6 -3 10 -11 10 -16z m840 17 c0 -2 -8 -10 -17 -17 -16 -13 -17 -12 -4 4
13 16 21 21 21 13z m427 -18 c-3 -8 -6 -5 -6 6 -1 11 2 17 5 13 3 -3 4 -12 1
-19z m2377 4 c15 -18 14 -22 -32 -70 -27 -29 -54 -52 -60 -52 -6 0 -17 -8 -24
-17 -7 -10 -23 -24 -36 -31 -18 -10 -22 -10 -22 3 0 8 6 15 14 15 21 0 27 38
8 51 -12 7 -14 12 -4 15 6 3 12 14 12 23 0 32 64 76 116 80 6 1 18 -7 28 -17z
m-2710 -22 c-9 -16 -23 -30 -32 -30 -12 0 -8 8 13 30 16 17 30 30 31 30 1 0
-4 -13 -12 -30z m5366 -15 c-19 -19 -35 -41 -36 -48 -2 -13 -84 -99 -84 -88 0
3 -7 -2 -15 -12 -13 -18 -14 -18 -24 2 -16 28 -14 49 2 27 12 -17 15 -16 46
13 19 17 26 29 17 25 -9 -3 14 23 51 59 69 67 104 85 43 22z m-3162 28 c-10
-2 -18 -9 -18 -14 0 -5 -12 -9 -27 -8 -16 0 -22 3 -14 6 11 5 11 7 0 14 -9 6
2 8 31 8 25 -1 37 -3 28 -6z m-89 -25 c11 -11 18 -24 16 -28 -5 -9 29 -20 63
-20 12 0 22 -3 22 -8 0 -4 -43 -8 -96 -10 -83 -2 -96 -1 -91 13 4 8 2 15 -3
15 -11 0 -14 43 -3 53 15 16 73 6 92 -15z m1105 -15 c16 -4 17 -7 5 -14 -18
-9 -99 9 -99 23 0 8 48 4 94 -9z m-3204 -8 c-7 -9 -15 -13 -19 -10 -3 3 1 10
9 15 21 14 24 12 10 -5z m1311 -13 c8 -13 20 -17 37 -14 17 3 23 1 18 -7 -4
-6 -1 -11 6 -11 10 0 10 -2 0 -9 -8 -4 -14 -12 -14 -17 0 -19 -14 -29 -40 -29
-20 -1 -28 4 -28 17 0 13 8 18 28 19 26 0 27 0 4 10 -13 5 -20 13 -17 19 3 5
2 10 -2 10 -5 0 -18 7 -29 15 -19 14 -18 14 3 15 13 0 28 -8 34 -18z m4040
-24 c-10 -24 -21 -50 -24 -58 -4 -8 -4 3 -1 25 7 45 20 75 34 75 5 0 1 -19 -9
-42z m-5429 20 c39 -11 39 -12 16 -24 -31 -18 -36 -17 -43 5 -3 11 -14 22 -23
24 -10 3 -12 5 -3 6 7 0 31 -4 53 -11z m4120 -78 c30 -25 37 -35 27 -41 -11
-7 -12 -11 -1 -17 10 -7 10 -11 -3 -22 -8 -7 -15 -18 -15 -25 0 -6 -7 -12 -15
-12 -11 0 -12 4 -4 14 9 10 8 13 -2 13 -7 0 -24 10 -37 23 l-25 22 12 -22 c10
-20 9 -22 -6 -16 -9 4 -25 15 -36 26 -17 17 -21 18 -28 4 -7 -11 0 -29 21 -61
17 -24 30 -48 29 -53 -5 -21 15 -63 30 -63 12 0 13 -2 3 -8 -7 -5 -10 -16 -7
-24 4 -11 -2 -17 -20 -20 -19 -4 -23 -2 -16 5 18 18 13 44 -18 94 -16 27 -32
65 -35 86 -4 21 -13 40 -21 43 -11 5 -12 10 -2 25 14 23 63 25 112 5 37 -16
55 -7 29 15 -20 17 -44 63 -44 86 0 12 6 7 16 -13 8 -18 34 -46 56 -64z m184
77 c12 16 12 14 3 -14 -11 -33 -32 -43 -45 -21 -4 7 -3 8 4 4 7 -4 12 -3 12 3
0 5 -5 11 -12 13 -7 3 -8 10 -3 17 6 11 10 10 17 -3 9 -16 11 -16 24 1z m1808
-3 c7 -19 -1 -34 -18 -34 -14 0 -28 35 -18 44 11 11 30 6 36 -10z m-6827 -76
c-2 -18 -4 -6 -4 27 0 33 2 48 4 33 2 -15 2 -42 0 -60z m4964 55 c5 -16 12
-35 15 -43 4 -12 7 -12 13 -1 5 7 14 10 20 6 7 -4 19 -1 28 7 15 12 15 11 5
-9 -14 -26 -32 -39 -32 -23 0 12 -32 10 -41 -4 -9 -11 -24 19 -32 62 -8 39 9
43 24 5z m-4544 3 c0 -8 -6 -12 -15 -9 -11 5 -11 7 0 14 7 5 13 9 14 9 0 0 1
-6 1 -14z m1818 4 c4 -6 11 -7 17 -4 7 5 9 1 5 -9 -3 -10 -2 -17 3 -17 6 0 10
-7 10 -15 0 -8 9 -15 20 -15 17 0 19 -3 10 -19 -13 -25 -13 -24 10 -51 11 -13
20 -28 20 -34 0 -6 -5 -4 -10 4 -8 12 -10 9 -10 -11 0 -24 -4 -27 -41 -31 -30
-3 -48 1 -65 15 -24 18 -24 18 -24 -2 0 -27 -12 -32 -47 -19 -26 10 -34 9 -48
-5 -18 -19 -45 -23 -45 -7 0 6 7 10 15 10 13 0 14 4 5 21 -15 26 13 62 42 53
13 -4 21 2 28 21 12 31 27 47 58 64 12 6 21 15 21 19 -6 35 11 55 26 32z
m3465 -16 c0 -8 -4 -12 -10 -9 -5 3 -10 10 -10 16 0 5 5 9 10 9 6 0 10 -7 10
-16z m-6980 -23 c0 -25 -14 -41 -38 -41 -4 0 -8 16 -9 35 -2 31 1 35 23 35 20
0 24 -5 24 -29z m6046 -9 c-4 -3 -11 0 -16 8 -15 24 -11 33 6 15 9 -9 13 -19
10 -23z m1033 5 c20 -17 31 -37 31 -53 0 -26 -2 -26 -42 -20 -52 8 -64 20 -71
68 -5 35 -4 36 23 35 15 -1 42 -14 59 -30z m-4345 -7 c39 -30 39 -30 155 -26
85 3 101 2 61 -4 -30 -4 -81 -8 -112 -9 l-57 -1 6 -30 c3 -19 1 -30 -6 -30 -6
0 -11 5 -11 11 0 6 -6 9 -13 6 -7 -3 -24 3 -37 13 -19 15 -22 21 -12 33 10 11
8 18 -8 32 -20 18 -26 35 -12 35 4 0 25 -14 46 -30z m4516 20 c0 -5 -5 -10
-11 -10 -5 0 -7 5 -4 10 3 6 8 10 11 10 2 0 4 -4 4 -10z m-5502 -32 c-6 -18
-17 -41 -24 -51 -11 -18 -12 -18 -19 3 -8 26 11 67 34 73 9 3 17 5 18 6 1 0
-3 -14 -9 -31z m4148 5 c17 -13 14 -14 -26 -9 -25 3 -58 10 -75 15 -26 9 -23
10 26 9 31 -1 65 -8 75 -15z m-2743 -10 c-13 -2 -33 -2 -45 0 -13 2 -3 4 22 4
25 0 35 -2 23 -4z m5067 -98 c0 -48 -6 -54 -75 -71 -21 -5 -25 -1 -35 35 -13
50 -6 82 27 118 l26 27 28 -32 c23 -25 29 -42 29 -77z m-6650 85 c0 -5 -3 -10
-8 -10 -12 0 -1 -78 12 -89 9 -8 19 -4 36 14 13 14 18 25 12 25 -7 0 -12 7
-12 15 0 18 17 20 23 3 3 -9 11 -7 27 7 15 13 21 15 16 5 -3 -8 -9 -23 -12
-32 -4 -10 -11 -18 -16 -18 -5 0 -6 -5 -2 -12 4 -6 3 -8 -3 -5 -16 10 -43 -37
-43 -73 0 -36 -23 -37 -28 -2 -2 14 -8 19 -18 15 -12 -4 -14 2 -12 29 2 39 -7
58 -28 58 -23 0 -16 27 13 55 29 27 43 31 43 15z m5635 -10 c3 -5 1 -10 -4
-10 -6 0 -11 5 -11 10 0 6 2 10 4 10 3 0 8 -4 11 -10z m-6179 -25 c6 -24 0
-44 -10 -34 -11 11 -17 59 -7 59 6 0 13 -11 17 -25z m4682 16 c10 -6 8 -10 -9
-14 -13 -4 -25 -4 -28 -2 -2 3 2 5 10 5 11 0 11 2 -1 10 -13 9 -13 10 0 10 8
0 21 -4 28 -9z m538 -5 c3 -8 1 -24 -6 -35 -8 -17 -17 -20 -38 -15 -37 9 -43
14 -36 25 3 6 11 5 21 -2 12 -10 16 -10 24 2 5 8 9 20 9 27 0 17 19 15 26 -2z
m-5572 -27 c-3 -5 0 -8 8 -7 7 2 12 -3 10 -11 -2 -7 7 -24 19 -37 12 -13 20
-26 18 -29 -10 -9 -66 60 -73 89 -6 26 -5 28 8 17 9 -7 13 -17 10 -22z m6619
-30 c-5 -5 -7 7 -4 29 5 34 6 35 9 8 2 -16 0 -32 -5 -37z m-5998 41 c9 -15 -6
-60 -21 -60 -9 0 -14 12 -14 35 0 34 20 49 35 25z m1670 -1 c11 -17 0 -20 -21
-4 -17 13 -17 14 -2 15 9 0 20 -5 23 -11z m2815 1 c12 -8 12 -10 -5 -10 -11 0
-27 5 -35 10 -12 8 -12 10 5 10 11 0 27 -5 35 -10z m-5045 -10 c-3 -5 -12 -10
-18 -10 -7 0 -6 4 3 10 19 12 23 12 15 0z m8452 -44 c-10 -27 -37 -7 -37 27
l0 31 21 -21 c13 -12 19 -28 16 -37z m-4627 -1 c-17 -20 -32 -19 -28 3 2 9 10
16 16 15 7 -2 11 0 11 5 -3 17 4 25 8 9 3 -10 -1 -24 -7 -32z m2570 41 c0 -2
-7 -7 -16 -10 -8 -3 -12 -2 -9 4 6 10 25 14 25 6z m-5899 -53 c-7 -16 -15 -41
-18 -58 -3 -16 -9 -31 -14 -33 -5 -2 -9 -10 -9 -19 0 -9 -6 -12 -18 -8 -16 4
-19 0 -20 -26 -1 -37 -6 -44 -28 -35 -11 4 -15 14 -11 31 2 14 2 23 -1 20 -3
-3 -14 2 -24 11 -12 12 -16 24 -11 42 3 14 6 34 7 46 1 15 7 20 21 18 11 -2
23 -8 26 -13 3 -5 22 -3 45 4 31 11 40 19 42 42 3 20 7 24 15 16 7 -7 7 -18
-2 -38z m4613 38 c3 -4 -6 -6 -19 -3 -14 2 -25 6 -25 8 0 8 39 4 44 -5z m1416
-1 c0 -5 -5 -10 -11 -10 -5 0 -7 5 -4 10 3 6 8 10 11 10 2 0 4 -4 4 -10z m-92
-14 c-10 -7 -19 -22 -19 -32 -1 -17 -2 -18 -6 -1 -3 12 -11 16 -23 12 -10 -3
-20 0 -23 9 -6 14 13 21 68 24 19 1 19 1 3 -12z m-545 -10 c12 -8 53 -17 90
-19 46 -3 74 -10 85 -21 10 -9 12 -16 5 -16 -7 0 -15 5 -18 10 -9 15 -35 12
-35 -4 0 -11 -8 -10 -37 5 -21 10 -46 16 -56 13 -19 -6 -67 20 -67 36 0 14 7
13 33 -4z m-6246 -28 c-3 -7 -5 -2 -5 12 0 14 2 19 5 13 2 -7 2 -19 0 -25z
m2463 16 c0 -8 -4 -12 -10 -9 -5 3 -10 10 -10 16 0 5 5 9 10 9 6 0 10 -7 10
-16z m4240 7 c0 -5 -12 -14 -27 -19 -16 -5 -36 -13 -45 -17 -11 -4 -18 -3 -18
4 0 6 8 11 18 11 10 0 27 7 38 15 22 17 34 19 34 6z m579 -3 c6 11 16 10 50
-4 40 -16 42 -19 39 -53 -3 -34 -5 -36 -43 -39 -29 -3 -43 1 -52 14 -12 17
-13 16 -13 -3 0 -30 -20 -40 -22 -11 -2 32 -3 40 -12 65 -10 32 1 45 25 30 16
-10 21 -9 28 1z m-5595 -7 c3 -4 -3 -16 -14 -26 -16 -14 -17 -20 -8 -27 10 -6
9 -8 -4 -8 -9 0 -24 -3 -33 -7 -15 -5 -16 -3 -6 14 9 18 7 22 -11 26 -18 5
-19 8 -8 21 13 17 75 22 84 7z m-1488 -15 c12 -30 -15 -56 -56 -56 -22 0 -40
4 -40 9 0 23 14 41 30 41 11 0 22 5 25 10 9 15 35 12 41 -4z m3224 -1 c30 -7
44 -13 30 -13 -24 0 -115 25 -95 27 6 0 35 -6 65 -14z m2390 -25 c0 -16 -7
-30 -15 -34 -10 -3 -15 1 -15 13 0 11 -5 21 -12 23 -21 7 -1 37 21 31 15 -4
21 -13 21 -33z m240 30 c0 -5 -4 -10 -10 -10 -5 0 -10 5 -10 10 0 6 5 10 10
10 6 0 10 -4 10 -10z m-5125 -10 c3 -5 1 -10 -4 -10 -6 0 -11 5 -11 10 0 6 2
10 4 10 3 0 8 -4 11 -10z m533 -5 c9 -8 -20 -45 -30 -39 -7 5 -9 -4 -6 -24 2
-17 0 -34 -6 -36 -6 -2 -3 -5 7 -5 10 -1 17 -4 15 -9 -26 -60 -46 -93 -62 -98
-23 -8 -42 12 -50 54 -5 28 -3 35 14 39 22 6 26 23 10 39 -15 15 18 57 41 51
15 -4 17 -2 9 13 -6 10 -10 22 -10 25 0 6 60 -3 68 -10z m2684 -8 c-2 -13 3
-14 28 -7 19 5 28 5 25 -1 -4 -5 -12 -9 -19 -9 -8 0 -16 -11 -18 -24 -4 -19 0
-26 16 -29 12 -2 4 -5 -17 -6 -21 0 -36 -5 -33 -9 3 -5 -7 -15 -22 -23 -15 -7
-29 -15 -31 -16 -2 -1 2 -9 8 -17 22 -26 49 -86 40 -86 -6 0 -21 8 -36 17 -15
10 -41 16 -63 14 -41 -3 -104 24 -95 39 4 6 12 10 19 10 21 0 94 88 98 117 2
23 9 29 33 31 17 2 34 8 40 13 13 13 30 5 27 -14z m2127 -49 c12 -35 31 -74
42 -87 11 -13 17 -27 13 -30 -11 -11 -54 53 -70 104 -8 28 -18 56 -20 63 -3 6
-2 12 3 12 5 0 19 -28 32 -62z m-5669 30 c0 -5 -9 -4 -20 2 -11 6 -20 12 -20
14 0 2 9 2 20 -1 11 -3 20 -9 20 -15z m5982 5 c10 -9 18 -26 18 -38 0 -18 -4
-21 -25 -17 -14 2 -25 9 -25 15 0 5 -9 2 -20 -8 -30 -27 -35 -11 -6 20 15 16
26 32 26 36 0 14 12 11 32 -8z m-5335 -15 c-3 -8 -6 -5 -6 6 -1 11 2 17 5 13
3 -3 4 -12 1 -19z m4473 -3 c0 -16 -6 -25 -15 -25 -18 0 -19 4 -3 30 16 26 18
25 18 -5z m-4817 -26 c5 -19 3 -26 -8 -26 -15 0 -21 38 -8 50 8 9 9 8 16 -24z
m5230 -21 c3 -10 2 -18 -3 -18 -10 0 -30 33 -30 50 0 15 24 -9 33 -32z m47 16
c0 -8 14 -39 30 -69 36 -65 39 -92 5 -45 -14 19 -25 38 -25 43 0 5 -9 22 -20
37 -11 16 -17 35 -14 44 7 19 24 12 24 -10z m-5050 13 c0 -2 -10 -12 -22 -23
l-23 -19 19 23 c18 21 26 27 26 19z m-1099 -29 c9 -16 7 -18 -14 -13 -14 4
-28 2 -31 -4 -9 -13 -36 -14 -55 -2 -12 8 -12 12 -2 25 19 23 89 18 102 -6z
m949 -55 c0 -20 -4 -32 -10 -28 -5 3 -10 1 -10 -6 0 -7 -3 -9 -7 -5 -4 4 -8
33 -9 64 l-2 57 19 -24 c10 -13 19 -39 19 -58z m4753 56 c-11 -11 4 -68 19
-70 4 -1 13 -2 20 -3 18 -2 22 -26 3 -26 -12 0 -13 -4 -7 -17 14 -28 24 -121
13 -127 -5 -4 -13 15 -17 41 -3 27 -14 62 -22 78 -14 26 -16 28 -20 10 -6 -32
-19 -39 -38 -21 -15 16 -15 18 1 37 15 16 17 25 8 54 -6 19 -8 33 -3 30 4 -2
15 4 25 15 10 11 21 18 23 15 3 -3 1 -10 -5 -16z m1492 -8 c-3 -6 -11 -11 -16
-11 -5 0 -4 6 3 14 14 16 24 13 13 -3z m-5981 -18 c14 -22 25 -71 19 -77 -10
-10 -30 19 -25 36 3 14 -2 18 -21 18 -20 0 -25 5 -23 24 1 18 6 23 20 20 11
-2 25 -12 30 -21z m-536 6 c-2 -6 -8 -10 -13 -10 -5 0 -11 4 -13 10 -2 6 4 11
13 11 9 0 15 -5 13 -11z m5346 -91 c-9 -29 -22 -84 -30 -123 l-13 -70 6 70 c3
39 14 97 24 130 10 33 19 69 20 80 1 13 3 11 6 -7 2 -15 -3 -51 -13 -80z
m-2084 82 c0 -5 -4 -10 -10 -10 -5 0 -10 5 -10 10 0 6 5 10 10 10 6 0 10 -4
10 -10z m-3539 -17 c13 -16 12 -17 -3 -4 -10 7 -18 15 -18 17 0 8 8 3 21 -13z
m6767 -49 c2 -72 7 -68 -53 -50 -36 11 -45 20 -45 47 0 22 8 34 33 49 54 33
62 28 65 -46z m-6360 22 c5 -39 -6 -76 -22 -76 -9 0 -13 15 -14 47 0 26 2 51
5 56 10 16 28 0 31 -27z m2012 -21 c0 -16 -6 -25 -15 -25 -8 0 -15 -7 -15 -15
0 -27 -20 -16 -35 21 -20 48 -19 52 8 56 33 6 57 -10 57 -37z m3539 12 c1 7
11 17 22 24 17 8 24 8 36 -3 12 -13 10 -19 -22 -47 -20 -17 -33 -36 -30 -41 4
-6 11 -8 16 -5 5 4 9 1 9 -4 0 -6 -10 -11 -22 -11 -23 0 -22 -1 2 -13 42 -21
31 -48 -33 -82 -34 -18 -55 -35 -52 -42 19 -49 19 -49 2 -35 -9 8 -21 29 -27
48 -7 19 -21 39 -32 45 -21 11 -17 24 8 24 7 0 14 5 13 10 0 6 -8 9 -17 7 -13
-2 -12 0 3 10 29 17 45 35 45 49 0 6 9 19 20 29 10 9 25 30 31 46 l12 29 7
-25 c5 -14 8 -20 9 -13z m365 7 c4 -10 -3 -14 -24 -14 -33 0 -36 4 -18 24 15
16 34 11 42 -10z m281 16 c3 -5 -1 -10 -9 -10 -8 0 -18 5 -21 10 -3 6 1 10 9
10 8 0 18 -4 21 -10z m-6466 -19 l-24 -19 28 -29 c15 -16 27 -32 27 -36 0 -14
-24 -1 -45 23 -39 48 -50 64 -38 56 7 -4 23 0 35 8 32 23 45 20 17 -3z m331 4
c0 -8 -6 -15 -14 -15 -17 0 -28 14 -19 24 12 12 33 6 33 -9z m-576 -5 c18 -6
26 -17 26 -34 0 -31 -19 -45 -53 -39 -32 6 -51 35 -42 63 7 22 30 25 69 10z
m705 -25 c14 -39 27 -45 36 -16 6 21 53 56 62 47 3 -3 -6 -11 -21 -17 -14 -7
-26 -17 -26 -23 0 -7 -7 -22 -16 -35 l-17 -24 -23 39 c-24 40 -30 64 -16 64 4
0 14 -16 21 -35z m5656 25 c3 -6 -1 -7 -9 -4 -18 7 -21 14 -7 14 6 0 13 -4 16
-10z m-5784 -48 c-5 -10 -19 -25 -31 -35 -17 -14 -19 -21 -10 -32 7 -8 17 -12
23 -8 8 5 7 8 -1 11 -17 5 -15 22 2 22 8 0 17 6 19 13 3 6 6 2 6 -10 2 -53
-19 -65 -57 -33 l-22 19 25 25 c14 14 25 32 25 40 0 9 6 13 15 10 10 -4 12
-11 6 -22z m-401 3 c14 -17 7 -45 -13 -45 -11 0 -37 39 -37 55 0 12 39 4 50
-10z m181 -12 c-8 -15 -10 -15 -11 -2 0 17 10 32 18 25 2 -3 -1 -13 -7 -23z
m329 -3 c26 -33 25 -50 -2 -47 -19 2 -28 -9 -54 -61 -28 -56 -31 -59 -29 -30
1 18 9 50 18 72 21 47 21 50 2 42 -11 -4 -15 1 -15 18 0 29 4 32 35 31 16 0
34 -10 45 -25z m3927 8 c-3 -8 -6 -5 -6 6 -1 11 2 17 5 13 3 -3 4 -12 1 -19z
m990 -40 c-2 -13 -4 -5 -4 17 -1 22 1 32 4 23 2 -10 2 -28 0 -40z m933 14 c0
-15 -2 -15 -10 -2 -13 20 -13 33 0 25 6 -3 10 -14 10 -23z m74 -67 c-9 -22
-23 -18 -35 8 -7 16 -7 31 2 52 l11 30 14 -38 c7 -21 11 -44 8 -52z m-2013 52
c-10 -9 -11 -8 -5 6 3 10 9 15 12 12 3 -3 0 -11 -7 -18z m-1018 -24 c-10 -15
-24 -40 -31 -55 -13 -31 -27 -36 -36 -12 -8 21 6 44 45 77 39 32 48 28 22 -10z
m1078 -33 c-26 -70 -43 -72 -20 -2 9 30 35 72 44 72 2 0 -9 -31 -24 -70z
m-4346 40 c8 -13 -14 -42 -25 -35 -10 6 -1 45 11 45 4 0 11 -5 14 -10z m5843
3 c-10 -2 -28 -2 -40 0 -13 2 -5 4 17 4 22 1 32 -1 23 -4z m-6824 -47 c11 -43
-1 -58 -43 -54 -21 3 -25 9 -27 43 -1 22 0 34 3 27 4 -10 9 -8 20 8 20 29 36
21 47 -24z m676 14 c0 -26 -2 -29 -14 -18 -8 7 -10 15 -5 16 5 2 9 10 9 18 0
8 2 14 5 14 3 0 5 -14 5 -30z m455 -10 c5 -29 12 -40 25 -40 21 0 29 -18 37
-80 6 -49 17 -62 49 -57 12 2 30 -2 40 -10 16 -12 15 -13 -14 -13 -31 0 -32
-2 -33 -42 l-1 -43 -14 45 c-12 38 -21 49 -63 71 -31 16 -54 23 -63 18 -12 -8
-5 -13 14 -11 3 1 12 -5 18 -13 10 -12 9 -15 -7 -15 -16 0 -19 -5 -15 -26 7
-39 -15 -22 -24 19 -4 17 -7 38 -5 44 1 8 -4 10 -13 7 -12 -5 -16 5 -18 48 -3
46 -6 53 -26 56 -20 3 -21 5 -6 19 9 9 19 12 22 7 18 -25 51 -44 65 -38 13 5
15 15 10 50 -7 56 13 60 22 4z m1873 -8 c6 -9 12 -33 12 -55 0 -31 -3 -38 -17
-36 -10 1 -26 -1 -36 -6 -10 -4 -29 -3 -44 4 -14 6 -35 9 -47 6 -15 -5 -17 -4
-7 3 9 6 12 21 9 41 -4 27 1 37 30 62 33 29 35 30 60 13 15 -9 33 -23 40 -32z
m-1578 34 c0 -3 -4 -8 -10 -11 -5 -3 -10 -1 -10 4 0 6 5 11 10 11 6 0 10 -2
10 -4z m-544 -30 c10 -8 16 -17 12 -21 -4 -4 -17 2 -29 14 -26 24 -13 29 17 7z
m564 -1 c7 -9 8 -15 2 -15 -5 0 -12 7 -16 15 -3 8 -4 15 -2 15 2 0 9 -7 16
-15z m84 -26 c5 -4 1 -15 -8 -24 -14 -14 -22 -14 -13 -1 1 3 -9 16 -23 31
l-25 27 30 -13 c17 -7 34 -16 39 -20z m2612 6 c-3 -9 -10 -13 -16 -10 -6 4 -5
11 3 20 15 16 22 11 13 -10z m1620 10 c-29 -22 -12 -29 24 -10 24 13 31 13 28
3 -3 -7 -13 -15 -24 -17 -20 -3 -34 -18 -34 -37 0 -6 18 -21 41 -33 22 -13 38
-25 35 -28 -3 -3 -20 4 -39 16 -26 16 -36 18 -46 8 -9 -9 -16 -7 -30 12 -16
21 -21 22 -42 11 -22 -12 -22 -10 6 21 43 49 68 69 85 68 11 0 10 -3 -4 -14z
m511 -7 c-3 -8 -6 -5 -6 6 -1 11 2 17 5 13 3 -3 4 -12 1 -19z m-1536 0 c37
-11 55 -38 24 -38 -19 0 -84 33 -85 43 0 10 16 9 61 -5z m1502 -51 c10 -32 23
-55 28 -51 6 3 17 0 25 -7 12 -10 13 -9 8 5 -11 28 6 17 18 -11 l11 -28 7 35
c6 30 8 31 9 9 0 -15 8 -29 16 -33 18 -7 20 -37 3 -33 -17 3 -11 -42 8 -60 8
-8 14 -21 14 -29 0 -17 16 -19 23 -1 4 7 8 3 13 -11 4 -13 17 -28 30 -33 13
-4 24 -16 24 -25 0 -8 -6 -14 -12 -11 -7 2 -20 -2 -29 -10 -32 -27 -96 12 -74
46 3 5 -4 26 -15 46 -11 20 -18 40 -15 46 4 5 2 9 -4 9 -5 0 -12 -4 -15 -8 -2
-4 -19 -9 -37 -10 -29 -2 -31 -1 -18 15 8 10 17 20 20 23 4 3 9 15 13 27 7 22
-8 41 -19 23 -13 -21 -35 16 -64 108 -8 26 -8 33 2 30 6 -3 20 -30 30 -61z
m327 48 c-7 -8 -17 -15 -23 -15 -6 0 -2 7 9 15 25 19 30 19 14 0z m-5121 -40
c0 -5 -6 -1 -14 9 -8 11 -15 24 -15 30 0 5 7 1 15 -10 8 -10 14 -23 14 -29z
m4557 -25 c-22 -85 -39 -111 -31 -46 6 47 34 120 43 112 2 -2 -4 -32 -12 -66z
m131 -17 c-2 -16 -4 -5 -4 22 0 28 2 40 4 28 2 -13 2 -35 0 -50z m1664 26 c9
-17 8 -20 -3 -14 -23 14 -48 38 -48 47 0 14 39 -11 51 -33z m-6857 16 c-4 -8
-1 -21 5 -29 9 -10 8 -15 -3 -19 -21 -8 -35 14 -25 41 5 12 13 22 18 22 6 0 8
-7 5 -15z m710 -8 c9 -15 7 -21 -8 -33 -29 -21 -45 -17 -57 13 -7 20 -6 28 3
35 20 12 50 5 62 -15z m4876 18 c0 -2 -18 -14 -40 -25 -48 -25 -52 -20 -7 9
31 20 47 26 47 16z m244 -70 l6 -40 -15 45 c-16 50 -19 73 -6 50 5 -8 12 -33
15 -55z m949 40 c7 -17 -46 -47 -69 -38 -31 12 -14 38 23 34 6 -1 14 3 18 9 9
14 22 12 28 -5z m-6202 -12 c12 -15 12 -16 -3 -10 -10 3 -20 1 -24 -5 -6 -10
-23 7 -24 25 0 14 38 7 51 -10z m-52 -48 c5 2 15 -9 22 -27 12 -29 11 -32 -16
-55 -29 -26 -45 -19 -45 19 0 9 -7 21 -16 26 -14 8 -12 10 10 16 16 4 25 13
24 24 -3 35 5 57 9 24 2 -18 8 -30 12 -27z m-1367 -12 c43 -45 81 -114 47 -87
-8 6 -30 14 -50 18 -33 6 -79 37 -79 55 0 4 9 17 20 28 14 15 16 23 7 26 -7 3
-7 6 -2 6 6 1 31 -20 57 -46z m1696 -4 l-3 -24 -13 23 c-7 12 -10 27 -6 33 10
17 26 -6 22 -32z m3842 38 c0 -2 -10 -12 -22 -23 l-23 -19 19 23 c18 21 26 27
26 19z m4130 -24 c1 -16 2 -54 3 -86 1 -31 5 -57 10 -57 4 0 7 -7 7 -16 0 -13
-7 -15 -29 -11 -20 4 -31 2 -35 -8 -7 -18 -89 -10 -124 12 -22 13 -23 20 -20
88 2 40 7 71 11 68 11 -7 129 17 142 28 18 17 34 9 35 -18z m-9650 2 c7 -8 8
-15 2 -15 -5 0 -15 7 -22 15 -7 8 -8 15 -2 15 5 0 15 -7 22 -15z m771 -22 c-8
-15 -10 -15 -11 -2 0 17 10 32 18 25 2 -3 -1 -13 -7 -23z m4384 -9 c-8 -45
-34 -86 -48 -77 -5 3 -7 1 -3 -5 3 -6 3 -37 -1 -69 l-8 -58 -5 80 c-3 44 -2
95 3 113 l8 33 18 -23 19 -22 7 32 c9 44 19 40 10 -4z m-4252 -9 c-14 -11 -14
-15 2 -43 15 -25 16 -33 6 -46 -20 -24 -50 -19 -63 9 -9 19 -8 29 6 50 9 14
14 25 11 25 -3 0 -1 9 5 20 9 17 14 18 30 8 17 -11 17 -13 3 -23z m-323 4 c0
-11 -4 -18 -10 -14 -5 3 -7 12 -3 20 7 21 13 19 13 -6z m4476 -10 c0 -14 3
-29 7 -35 3 -6 6 -67 5 -135 -1 -125 5 -186 23 -204 21 -21 6 -23 -32 -3 -34
17 -39 23 -27 32 8 6 15 27 15 49 0 43 -4 46 -17 12 -10 -25 -34 -33 -45 -15
-9 14 13 50 31 50 10 0 14 6 11 14 -3 8 0 17 8 20 10 4 13 23 9 81 -2 42 -8
84 -13 93 -12 22 -2 74 13 69 6 -2 11 -15 12 -28z m1034 24 c0 -5 -5 -15 -10
-23 -8 -12 -10 -11 -10 8 0 12 5 22 10 22 6 0 10 -3 10 -7z m-3013 -19 c-3 -3
-12 -4 -19 -1 -8 3 -5 6 6 6 11 1 17 -2 13 -5z m3551 -83 c12 -30 20 -56 17
-59 -5 -6 -65 121 -65 139 0 20 23 -19 48 -80z m-1718 70 c0 -5 -6 -12 -12
-15 -10 -5 -10 -7 0 -12 16 -8 15 -29 -2 -43 -11 -9 -18 -8 -30 4 -18 18 -18
21 -10 53 4 15 14 22 30 22 13 0 24 -4 24 -9z m-4580 -31 c0 -23 -4 -28 -16
-23 -12 4 -13 8 -3 13 6 5 9 15 6 24 -4 9 -2 16 3 16 6 0 10 -13 10 -30z m447
14 c3 -8 -3 -23 -14 -33 -10 -10 -37 -59 -59 -109 -21 -51 -43 -92 -48 -92
-14 0 2 47 32 94 24 37 38 72 58 144 5 17 23 15 31 -4z m5048 -43 c-8 -60 -25
-78 -25 -27 0 38 17 92 26 83 3 -3 3 -29 -1 -56z m-5238 17 c-3 -7 -5 -2 -5
12 0 14 2 19 5 13 2 -7 2 -19 0 -25z m573 22 c0 -6 9 -6 26 0 22 9 27 7 31
-10 3 -11 12 -20 21 -20 12 0 13 -3 4 -12 -7 -7 -12 -20 -12 -30 0 -10 -4 -18
-10 -18 -5 0 -10 7 -10 15 0 13 -45 48 -74 58 -11 4 1 27 15 27 5 0 9 -4 9
-10z m6268 -10 c7 -11 15 -40 19 -65 5 -42 4 -44 -22 -51 -15 -4 -40 -3 -54 2
-22 8 -26 16 -26 49 0 33 5 44 30 62 38 27 38 27 53 3z m-1317 -2 c1 -7 1 -17
0 -22 -1 -5 7 -6 18 -3 20 5 39 -19 20 -25 -6 -2 -12 -17 -13 -34 -2 -34 -47
-94 -78 -106 -10 -4 -17 -4 -14 1 3 4 -6 14 -20 22 -15 7 -30 24 -35 36 -7 18
-17 23 -46 24 -31 2 -33 3 -10 6 16 3 34 15 44 31 26 43 76 81 106 82 15 0 28
-6 28 -12z m-5857 -12 c-6 -16 -47 -36 -75 -36 -32 0 -19 34 16 41 51 11 65
10 59 -5z m-139 -37 c-9 -28 3 -57 26 -64 21 -7 69 -48 69 -60 0 -4 -14 5 -31
19 -32 27 -39 29 -76 26 -20 -1 -23 3 -23 37 0 43 -13 72 -24 54 -4 -6 -2 -11
3 -11 6 0 11 -6 11 -14 0 -11 -5 -12 -25 -3 -34 16 -32 22 13 40 42 17 66 7
57 -24z m7859 8 c34 -44 35 -95 3 -126 -13 -12 -32 -48 -43 -81 -10 -33 -22
-60 -26 -60 -5 0 -8 -10 -8 -22 0 -12 -3 -19 -6 -16 -3 3 -1 30 4 59 7 36 7
58 0 66 -5 7 -7 16 -4 22 3 5 -10 18 -29 30 -31 18 -35 25 -35 64 0 40 2 44
34 55 19 7 40 19 46 27 19 23 37 18 64 -18z m-1433 13 c6 0 7 -5 4 -10 -5 -8
-11 -8 -19 -1 -7 6 -16 8 -19 4 -4 -3 -7 -1 -7 6 0 8 6 11 16 7 9 -3 20 -6 25
-6z m-5531 -31 c0 -10 5 -19 10 -19 6 0 10 -5 10 -12 0 -9 -3 -9 -12 0 -16 16
-28 15 -28 -2 0 -7 -7 -29 -15 -47 l-14 -34 -1 53 c0 46 2 52 21 52 16 0 19 4
14 21 -5 15 -4 19 4 15 6 -4 11 -16 11 -27z m5706 -15 c-5 -13 -10 -14 -18 -6
-6 6 -8 18 -4 28 5 13 10 14 18 6 6 -6 8 -18 4 -28z m-4996 -35 c0 -13 -8 -19
-22 -20 l-23 -2 23 -4 c23 -5 29 -18 12 -28 -6 -4 -8 -15 -5 -26 5 -16 1 -19
-22 -19 -20 0 -37 11 -60 37 -18 21 -33 42 -33 48 0 18 34 40 57 37 15 -2 23
4 28 19 l8 23 18 -23 c11 -13 19 -32 19 -42z m-644 26 c8 -21 32 -19 37 3 3 9
5 1 6 -18 0 -23 -2 -30 -8 -21 -6 9 -10 10 -16 2 -5 -8 -13 -5 -26 10 -10 12
-19 26 -19 31 0 14 20 9 26 -7z m279 -15 c17 -11 26 -20 22 -20 -13 0 -77 29
-77 34 0 12 26 5 55 -14z m2182 -2 c-3 -8 -6 -5 -6 6 -1 11 2 17 5 13 3 -3 4
-12 1 -19z m-2940 -60 c-2 -13 -4 -3 -4 22 0 25 2 35 4 23 2 -13 2 -33 0 -45z
m462 30 c12 -15 11 -18 -3 -18 -10 0 -16 8 -16 22 0 12 1 19 3 17 1 -2 9 -12
16 -21z m-249 -19 c-7 -11 -14 -18 -17 -15 -3 3 0 12 7 21 18 21 23 19 10 -6z
m2711 -88 c27 -20 48 -39 48 -44 1 -13 -52 20 -93 57 -22 20 -54 46 -73 58
-18 13 -33 27 -33 31 0 9 55 -28 151 -102z m-3553 50 c-2 -8 -11 -19 -20 -25
-14 -8 -22 -7 -35 6 -16 17 -16 19 7 43 23 25 25 25 38 8 7 -10 11 -24 10 -32z
m1202 7 c33 -46 38 -79 14 -102 -21 -21 -34 -20 -34 3 0 11 -3 27 -6 36 -5 11
0 18 15 22 11 3 18 9 15 14 -9 15 -34 10 -34 -6 0 -8 -4 -15 -9 -15 -5 0 -16
-3 -24 -6 -20 -7 -33 32 -16 52 7 8 19 12 26 10 11 -4 13 0 8 14 -11 34 13 22
45 -22z m4820 17 c0 -7 -7 -15 -15 -19 -16 -6 -19 3 -9 28 7 18 24 12 24 -9z
m-2416 -65 c15 -28 25 -56 23 -63 -3 -7 -9 -1 -15 13 -6 14 -25 45 -41 70 -17
25 -31 49 -31 54 0 18 38 -26 64 -74z m2116 70 c-20 -13 -53 -13 -45 0 3 6 18
10 33 10 21 0 24 -2 12 -10z m-590 -10 c0 -5 -4 -10 -10 -10 -5 0 -10 5 -10
10 0 6 5 10 10 10 6 0 10 -4 10 -10z m-4387 -15 c-3 -9 -8 -14 -10 -11 -3 3
-2 9 2 15 9 16 15 13 8 -4z m867 -7 c0 -11 -22 -10 -39 1 -10 7 -7 9 12 8 15
-1 27 -5 27 -9z m4130 8 c0 -3 -4 -8 -10 -11 -5 -3 -10 -1 -10 4 0 6 5 11 10
11 6 0 10 -2 10 -4z m-5013 -48 c-3 -8 -6 -5 -6 6 -1 11 2 17 5 13 3 -3 4 -12
1 -19z m323 -28 c0 -15 -37 -40 -59 -40 -20 0 -19 33 1 60 20 28 23 29 40 13
10 -9 18 -24 18 -33z m325 40 c7 -12 -2 -12 -30 0 -19 8 -19 9 2 9 12 1 25 -3
28 -9z m3199 -22 c23 -32 9 -58 -30 -58 -35 0 -54 20 -54 59 0 34 60 34 84 -1z
m-3154 12 c8 -5 11 -10 5 -10 -5 0 -17 5 -25 10 -8 5 -10 10 -5 10 6 0 17 -5
25 -10z m4667 -12 c-3 -8 -6 -5 -6 6 -1 11 2 17 5 13 3 -3 4 -12 1 -19z m-704
-9 c8 -13 6 -24 -6 -43 -21 -31 -57 -34 -82 -6 -14 15 -32 20 -74 21 l-56 2
60 7 c33 3 74 14 90 23 35 19 54 18 68 -4z m-3712 -9 c29 -16 23 -27 -11 -22
-29 4 -37 12 -23 25 8 9 11 9 34 -3z m4426 -52 c-3 -7 -5 -2 -5 12 0 14 2 19
5 13 2 -7 2 -19 0 -25z m692 -23 c-8 -7 -49 33 -49 48 0 6 12 -1 27 -15 15
-15 25 -30 22 -33z m-6202 -2 c-3 -10 -5 -2 -5 17 0 19 2 27 5 18 2 -10 2 -26
0 -35z m117 26 c-10 -12 -39 -33 -64 -47 -27 -16 -39 -28 -29 -30 17 -3 42
-60 32 -75 -4 -6 -6 -31 -5 -56 l1 -46 -15 33 c-15 34 -28 41 -37 18 -4 -10
-20 -14 -50 -13 -40 2 -46 5 -56 33 -13 37 -14 47 -2 40 10 -7 24 52 15 66 -3
5 -11 4 -20 -3 -11 -9 -21 -4 -49 24 -19 19 -35 41 -35 48 1 10 4 8 11 -3 11
-20 39 -13 39 11 0 11 10 6 33 -19 18 -19 32 -38 30 -41 -1 -4 9 -10 24 -13
30 -8 148 46 167 77 6 9 15 17 20 17 5 0 1 -9 -10 -21z m2920 -21 c-3 -5 -12
-4 -20 3 -19 16 -18 18 6 12 11 -3 17 -9 14 -15z m1257 5 c29 -18 37 -37 19
-48 -5 -3 -10 -20 -10 -36 0 -23 -6 -32 -27 -40 -39 -14 -66 -8 -80 21 -9 19
-9 28 0 39 10 12 9 14 -5 8 -12 -4 -18 -2 -18 8 0 11 8 13 31 8 25 -5 31 -3
27 8 -5 12 18 49 30 49 2 0 17 -8 33 -17z m-1121 -2 c0 -5 7 -11 16 -13 11 -2
18 -16 20 -42 2 -21 10 -46 19 -56 19 -21 19 -29 -1 -68 -20 -42 -30 -46 -47
-22 -13 19 -102 44 -119 34 -5 -3 -8 20 -8 50 0 31 4 56 9 56 5 0 12 11 15 25
4 14 17 30 29 35 29 12 67 12 67 1z m1258 -38 c-5 -24 -38 -26 -38 -2 0 12 4
17 11 14 6 -4 13 3 17 16 5 19 7 20 10 7 2 -10 2 -25 0 -35z m-3133 -31 c-4
-5 -85 56 -85 64 0 3 20 -9 45 -27 25 -18 43 -34 40 -37z m45 26 c0 -12 -6 -9
-26 13 -19 22 -19 22 4 8 12 -8 22 -17 22 -21z m175 0 c23 -10 25 -16 25 -80
0 -92 -11 -112 -57 -103 -19 3 -57 21 -84 38 -47 30 -49 34 -44 65 4 20 1 39
-6 48 -13 16 -5 18 20 4 14 -7 24 -4 41 15 26 27 64 32 105 13z m3675 -28 c-6
-12 -14 -19 -17 -16 -4 3 0 18 8 32 7 14 15 21 17 15 2 -5 -2 -20 -8 -31z
m-5133 -2 c-3 -8 -6 -5 -6 6 -1 11 2 17 5 13 3 -3 4 -12 1 -19z m7273 -9 c0
-4 11 -25 25 -45 16 -23 25 -51 25 -74 0 -42 -11 -50 -66 -50 -44 0 -60 30
-48 87 4 21 9 43 9 48 1 6 8 22 15 37 10 22 16 25 27 17 7 -6 13 -15 13 -20z
m-4004 -14 c-3 -8 -10 -15 -16 -15 -14 0 -12 37 3 43 15 5 21 -8 13 -28z m621
29 c-3 -3 -12 -4 -19 -1 -8 3 -5 6 6 6 11 1 17 -2 13 -5z m-3476 -97 c-14 -14
-61 0 -61 19 0 27 20 54 40 54 11 0 21 6 22 13 1 6 3 -8 5 -32 3 -24 0 -48 -6
-54z m3332 86 c-7 -2 -21 -2 -30 0 -10 3 -4 5 12 5 17 0 24 -2 18 -5z m617
-80 c30 -15 12 -17 -24 -3 -21 7 -26 6 -26 -5 0 -8 -4 -15 -8 -15 -5 0 -7 14
-4 30 2 17 8 30 13 30 5 0 10 12 10 28 1 20 3 17 8 -13 4 -29 13 -43 31 -52z
m178 4 c31 -47 29 -65 -7 -59 -24 3 -30 0 -33 -16 -3 -19 -6 -18 -39 12 l-36
34 30 -2 c27 -1 32 4 40 32 6 17 13 32 16 32 3 0 16 -15 29 -33z m-5308 -10
c0 -33 -33 -98 -38 -74 -2 9 -7 17 -12 17 -5 0 -7 6 -5 13 20 56 26 67 40 67
9 0 15 -9 15 -23z m369 17 c21 -5 31 -12 31 -25 0 -11 -7 -19 -15 -19 -8 0
-15 -5 -15 -11 0 -6 -14 -9 -32 -7 -29 3 -33 7 -36 36 -4 35 5 38 67 26z m408
-16 c-3 -8 -6 -5 -6 6 -1 11 2 17 5 13 3 -3 4 -12 1 -19z m6273 -50 c0 -14 30
-8 36 7 9 22 18 19 37 -14 21 -36 22 -60 2 -88 -13 -19 -19 -21 -40 -11 -27
12 -32 22 -50 98 -12 48 -12 52 1 36 8 -11 14 -23 14 -28z m-3040 -9 c0 -6 9
-22 20 -36 28 -36 25 -45 -12 -41 -29 3 -33 6 -31 29 1 22 -2 26 -18 22 -17
-5 -28 15 -15 28 10 10 56 8 56 -2z"/>
<path d="M9946 4593 c-6 -14 -5 -15 5 -6 7 7 10 15 7 18 -3 3 -9 -2 -12 -12z"/>
<path d="M6675 3070 c3 -5 11 -10 16 -10 6 0 7 5 4 10 -3 6 -11 10 -16 10 -6
0 -7 -4 -4 -10z"/>
<path d="M6383 2677 c-15 -33 -17 -87 -3 -87 11 0 23 58 18 91 -3 23 -3 23
-15 -4z"/>
<path d="M6062 2302 c1 -19 5 -29 10 -24 5 5 5 19 -1 33 -8 22 -9 22 -9 -9z"/>
<path d="M6016 2252 c-2 -4 -1 -14 5 -22 7 -12 9 -10 9 8 0 23 -5 28 -14 14z"/>
<path d="M6326 2193 c5 -5 12 -12 16 -18 4 -6 8 -2 8 8 0 9 -7 17 -17 17 -9 0
-12 -3 -7 -7z"/>
<path d="M5947 2184 c-3 -3 -3 -12 0 -20 4 -12 0 -14 -19 -9 -24 6 -25 4 -31
-44 -3 -27 -10 -58 -16 -68 -6 -10 -17 -44 -24 -76 l-14 -58 22 21 c12 11 26
20 32 20 6 0 14 12 18 27 4 18 9 23 14 15 4 -7 15 -10 24 -6 20 7 23 -16 7
-47 -12 -21 -40 -26 -40 -7 0 6 -11 1 -25 -12 -32 -30 -31 -35 5 -35 16 0 29
-4 27 -10 -1 -5 -14 -9 -28 -8 -29 3 -94 -50 -84 -68 4 -5 11 -7 16 -4 5 4 9
1 9 -4 0 -6 20 -16 45 -22 25 -6 44 -16 42 -22 -6 -19 -25 -19 -30 0 -3 13 -5
13 -6 3 0 -8 -11 -20 -23 -25 -36 -16 -32 -33 10 -45 27 -7 48 -7 67 0 33 13
35 13 35 -2 0 -6 -3 -8 -6 -5 -4 3 -16 1 -28 -5 -11 -6 -38 -11 -58 -9 -39 2
-44 -3 -28 -29 7 -11 10 -12 10 -2 0 20 22 9 31 -16 6 -16 5 -22 -6 -22 -8 0
-15 4 -15 10 0 5 -13 7 -28 5 -30 -3 -95 22 -87 35 8 13 -52 49 -73 43 -26 -7
-32 -29 -32 -140 0 -85 2 -93 19 -93 11 0 28 11 38 23 10 13 25 26 33 30 9 3
10 6 3 6 -7 1 -13 9 -13 19 0 14 2 15 10 2 7 -11 10 -11 10 -2 0 7 5 10 10 7
6 -4 8 -11 5 -16 -10 -15 7 -10 26 7 10 9 15 22 12 30 -4 11 2 14 31 10 24 -3
52 2 79 14 23 11 34 20 24 20 -10 0 -15 5 -12 10 3 6 15 10 26 10 11 0 17 -4
14 -10 -8 -13 25 -1 46 17 9 8 20 13 25 12 5 -1 16 -1 24 0 13 1 13 2 0 12
-13 9 -13 10 0 6 8 -2 23 0 33 5 11 5 17 5 17 -1 0 -6 -9 -15 -20 -21 -11 -6
-20 -15 -20 -21 0 -18 63 -37 138 -41 64 -4 72 -3 66 11 -8 20 -8 39 1 68 7
21 5 22 -54 18 -33 -2 -66 -7 -73 -11 -10 -6 -11 -5 -1 7 7 9 30 21 51 28 45
15 72 48 50 62 -9 6 -3 8 17 7 40 -3 60 9 45 26 -13 16 26 70 43 59 7 -4 8 0
4 11 -4 10 -7 20 -7 22 0 3 -4 2 -10 -1 -6 -4 -11 8 -11 27 -2 31 -2 32 -6 5
-4 -28 -5 -28 -24 -12 -10 10 -17 20 -15 24 1 3 -5 14 -16 24 -21 20 -25 2 -3
-19 17 -17 20 -34 6 -34 -5 0 -12 8 -15 18 -6 18 -1 -23 5 -48 2 -8 -3 -15
-11 -15 -8 0 -17 11 -18 24 -3 19 -6 21 -14 10 -7 -11 -9 -8 -5 9 5 24 -17 32
-26 10 -4 -10 -6 -10 -6 0 -1 7 6 23 14 36 14 21 14 24 0 30 -9 3 -14 2 -11
-3 9 -15 -18 -66 -34 -66 -18 1 -14 27 6 38 8 4 14 16 14 25 0 13 -2 14 -9 4
-5 -8 -19 -12 -32 -9 l-24 4 23 8 c27 9 29 35 3 42 -13 3 -18 10 -14 21 4 10
2 13 -6 8 -6 -4 -18 -2 -26 4 -8 7 -15 9 -15 5 0 -5 -9 2 -20 15 -11 13 -20
27 -20 32 0 5 -4 7 -9 3 -10 -5 -43 36 -54 68 -6 17 -19 22 -30 11z m62 -102
c9 -8 10 -11 4 -7 -9 4 -13 -3 -13 -22 -1 -27 -1 -27 -15 -9 -8 11 -15 36 -15
55 1 32 2 34 12 16 6 -11 19 -26 27 -33z m-92 -14 c-3 -7 -5 -2 -5 12 0 14 2
19 5 13 2 -7 2 -19 0 -25z m133 -26 c0 -10 6 -27 14 -38 11 -16 12 -23 1 -37
-10 -14 -18 -15 -39 -7 -22 8 -26 7 -27 -8 0 -11 -2 -12 -6 -4 -3 7 -1 20 3
30 4 9 8 30 9 46 4 43 45 60 45 18z m-50 -138 c0 -8 -5 -12 -10 -9 -6 4 -8 11
-5 16 9 14 15 11 15 -7z m43 -22 c-2 -10 -11 -19 -19 -19 -20 0 -17 25 4 30 9
3 18 5 19 6 0 0 -1 -7 -4 -17z m-73 -22 c0 -11 -7 -20 -15 -20 -15 0 -21 21
-8 33 12 13 23 7 23 -13z m27 -12 c-3 -7 -5 -2 -5 12 0 14 2 19 5 13 2 -7 2
-19 0 -25z m93 22 c0 -5 -2 -10 -4 -10 -3 0 -8 5 -11 10 -3 6 -1 10 4 10 6 0
11 -4 11 -10z m17 -12 c-3 -8 -6 -5 -6 6 -1 11 2 17 5 13 3 -3 4 -12 1 -19z
m103 -16 c0 -10 6 -26 13 -37 8 -11 16 -30 19 -42 5 -19 3 -20 -17 -11 -15 7
-25 22 -29 47 -9 53 -7 73 4 66 6 -3 10 -14 10 -23z m-33 -24 c-3 -8 -6 -5 -6
6 -1 11 2 17 5 13 3 -3 4 -12 1 -19z m-117 -45 c0 -7 -4 -13 -10 -13 -5 0 -10
6 -10 14 0 8 -3 23 -6 33 -5 16 -4 16 10 -1 9 -11 16 -26 16 -33z m-68 10 c11
1 23 -4 26 -12 3 -8 0 -11 -7 -7 -7 5 -11 -1 -11 -14 0 -16 -4 -20 -16 -16 -9
3 -18 6 -20 6 -2 0 -4 6 -4 14 0 8 -6 16 -12 19 -10 3 -9 8 2 22 13 16 15 16
18 2 2 -10 12 -16 24 -14z m178 -11 c0 -4 -16 -8 -35 -9 -20 -1 -42 -7 -50
-13 -18 -15 -20 -5 -2 15 13 15 87 21 87 7z m-145 -52 c4 -6 12 -7 18 -3 7 3
4 -3 -6 -14 -12 -14 -15 -23 -7 -28 5 -3 8 -11 5 -16 -7 -11 -26 -12 -24 -1 4
21 -2 42 -10 38 -5 -4 -7 3 -4 14 6 22 18 26 28 10z m-308 -72 c-3 -8 -6 -5
-6 6 -1 11 2 17 5 13 3 -3 4 -12 1 -19z m-20 -35 c-3 -10 -5 -4 -5 12 0 17 2
24 5 18 2 -7 2 -21 0 -30z m30 -65 c-2 -13 -4 -5 -4 17 -1 22 1 32 4 23 2 -10
2 -28 0 -40z m20 30 c-3 -8 -6 -5 -6 6 -1 11 2 17 5 13 3 -3 4 -12 1 -19z"/>
<path d="M6060 2124 c38 -47 45 -54 59 -54 17 0 -22 45 -54 63 -19 10 -19 9
-5 -9z"/>
<path d="M5850 2068 c-7 -18 -22 -52 -32 -75 -10 -24 -23 -54 -28 -68 -6 -16
-17 -25 -31 -25 -18 0 -21 -4 -16 -30 4 -19 1 -34 -9 -44 -8 -9 -14 -30 -12
-50 2 -33 4 -34 33 -30 23 4 27 3 15 -5 -13 -9 -13 -11 1 -11 9 0 20 7 23 16
7 18 7 125 0 107 -3 -7 -12 -9 -20 -6 -13 5 -13 7 -2 14 10 7 10 9 1 9 -7 0
-13 5 -13 10 0 6 7 10 15 10 8 0 15 -4 15 -10 0 -5 4 -10 9 -10 9 0 41 104 41
134 0 10 7 33 16 52 9 19 14 37 12 40 -3 2 -11 -10 -18 -28z m-70 -254 c0 -8
-4 -14 -10 -14 -5 0 -10 9 -10 21 0 11 5 17 10 14 6 -3 10 -13 10 -21z"/>
<path d="M6402 2074 c1 -19 7 -30 13 -27 8 2 12 -14 13 -47 1 -58 10 -79 24
-59 6 10 7 7 3 -8 -4 -16 -2 -23 7 -23 10 0 11 -2 0 -8 -16 -11 -5 -40 18 -47
10 -3 20 -13 22 -21 2 -11 9 -6 21 15 l18 31 -25 0 c-14 0 -26 5 -26 11 0 7
10 9 25 5 27 -7 32 3 13 22 -17 17 2 15 22 -3 15 -14 16 -13 12 13 -4 27 -53
75 -77 75 -8 0 -11 7 -7 15 4 11 1 14 -12 9 -9 -4 -15 -3 -13 1 3 4 -8 23 -24
42 l-30 35 3 -31z m103 -114 c3 -5 1 -10 -4 -10 -6 0 -11 5 -11 10 0 6 2 10 4
10 3 0 8 -4 11 -10z"/>
<path d="M6697 2069 c4 -13 8 -18 11 -10 2 7 -1 18 -6 23 -8 8 -9 4 -5 -13z"/>
<path d="M6392 1985 c0 -16 2 -22 5 -12 2 9 2 23 0 30 -3 6 -5 -1 -5 -18z"/>
<path d="M5921 1964 c0 -11 3 -14 6 -6 3 7 2 16 -1 19 -3 4 -6 -2 -5 -13z"/>
<path d="M6235 1970 c3 -5 8 -10 11 -10 2 0 4 5 4 10 0 6 -5 10 -11 10 -5 0
-7 -4 -4 -10z"/>
<path d="M6421 1914 c0 -11 3 -14 6 -6 3 7 2 16 -1 19 -3 4 -6 -2 -5 -13z"/>
<path d="M6388 1883 c7 -3 16 -2 19 1 4 3 -2 6 -13 5 -11 0 -14 -3 -6 -6z"/>
<path d="M5550 1750 c-13 -8 -12 -10 3 -10 9 0 17 5 17 10 0 12 -1 12 -20 0z"/>
<path d="M6488 1653 c7 -3 16 -2 19 1 4 3 -2 6 -13 5 -11 0 -14 -3 -6 -6z"/>
<path d="M6050 1609 c0 -5 5 -7 10 -4 6 3 10 8 10 11 0 2 -4 4 -10 4 -5 0 -10
-5 -10 -11z"/>
<path d="M6750 1610 c0 -5 5 -10 10 -10 6 0 10 5 10 10 0 6 -4 10 -10 10 -5 0
-10 -4 -10 -10z"/>
<path d="M6564 1565 c-3 -19 -4 -42 0 -50 3 -9 2 -13 -4 -10 -6 3 -10 -5 -10
-18 0 -27 35 -77 53 -76 8 0 8 2 0 6 -21 8 -15 33 10 43 17 7 18 9 5 9 -20 1
-26 51 -7 51 5 0 8 -4 5 -9 -3 -5 0 -14 7 -19 13 -11 13 -10 8 71 -1 9 -6 17
-12 17 -7 0 -9 -10 -5 -25 4 -14 2 -25 -4 -25 -5 0 -10 9 -10 19 0 26 -10 51
-21 51 -4 0 -11 -16 -15 -35z"/>
<path d="M6630 1445 c-11 -13 -10 -14 4 -9 9 3 16 10 16 15 0 13 -6 11 -20 -6z"/>
<path d="M6472 1419 c-8 -12 -9 -18 -3 -14 7 4 11 -4 11 -19 0 -34 13 -39 27
-10 9 19 8 26 -1 32 -7 4 -15 13 -17 20 -3 8 -9 5 -17 -9z"/>
<path d="M6540 1421 c0 -5 7 -11 15 -15 8 -3 15 -1 15 3 0 5 -7 11 -15 15 -8
3 -15 1 -15 -3z"/>
<path d="M6515 1330 c3 -5 8 -10 11 -10 2 0 4 5 4 10 0 6 -5 10 -11 10 -5 0
-7 -4 -4 -10z"/>
<path d="M7679 3109 c-7 -5 -12 -9 -9 -10 32 -5 60 -7 60 -4 0 12 -38 23 -51
14z"/>
<path d="M9620 3171 c0 -5 5 -13 10 -16 6 -3 10 -2 10 4 0 5 -4 13 -10 16 -5
3 -10 2 -10 -4z"/>
<path d="M846 3298 c-19 -27 -20 -45 -3 -75 10 -18 15 -19 28 -10 25 19 33 71
14 91 -21 20 -21 20 -39 -6z"/>
<path d="M8310 2750 c0 -5 5 -10 10 -10 6 0 10 5 10 10 0 6 -4 10 -10 10 -5 0
-10 -4 -10 -10z"/>
<path d="M8220 2989 c0 -5 5 -7 10 -4 6 3 10 1 10 -5 0 -6 5 -8 12 -4 6 4 17
-1 25 -11 8 -12 13 -14 13 -6 0 17 -30 40 -52 41 -10 0 -18 -5 -18 -11z"/>
<path d="M6885 2610 c-3 -5 1 -10 9 -10 9 0 16 5 16 10 0 6 -4 10 -9 10 -6 0
-13 -4 -16 -10z"/>
<path d="M7567 1723 c-4 -3 -7 -16 -6 -27 0 -19 1 -19 10 3 10 24 8 36 -4 24z"/>
<path d="M7010 1180 c0 -5 7 -10 16 -10 8 0 12 5 9 10 -3 6 -10 10 -16 10 -5
0 -9 -4 -9 -10z"/>
</g>
</svg>
